<svg xmlns="http://www.w3.org/2000/svg">
    <symbol id="icon-burger" viewBox="0 0 40 15" fill="none" xmlns="http://www.w3.org/2000/svg">
        <path d="M0 1L40 1" stroke="white" stroke-width="2"/>
        <path d="M0 14L40 14" stroke="white" stroke-width="2"/>
    </symbol>
    <symbol id="icon-logo" viewBox="0 0 210 58" fill="none" xmlns="http://www.w3.org/2000/svg">
        <g clip-path="url(#clip0_6917_285)">
            <path d="M78.8604 51.9892L79.4183 51.9714C81.508 51.9179 82.9071 52.853 83.1196 54.5984C83.155 54.9012 83.1727 55.1951 83.155 55.4622C83.0842 56.7001 82.3935 57.4303 81.1007 57.6618C80.6491 57.7776 80.0912 57.8132 79.4537 57.7954L78.0104 57.7598H76.815C76.9035 57.0474 76.9301 55.9342 76.9301 54.4203V50.5465C76.9301 48.9525 76.8947 47.8571 76.8327 47.2427H81.8622V48.0709C81.4283 47.9551 80.2329 47.8839 78.276 47.866C78.2229 48.6319 78.2052 49.5224 78.2052 50.5376V57.1364C78.3734 57.1364 78.6302 57.1364 78.949 57.1542C79.2855 57.172 79.5422 57.172 79.6928 57.172C80.2506 57.172 80.6668 57.0741 80.9856 56.8693C81.6054 56.5487 81.9242 55.952 81.9242 55.106C81.9242 54.1799 81.57 53.4942 81.1538 53.1558C80.4631 52.6304 79.6042 52.5591 79.0995 52.5947L78.8604 51.9714V51.9892Z" fill="white"/>
            <path d="M89.7607 56.0678C88.9283 57.9913 87.9277 58.3208 86.4313 57.644C86.2985 57.5817 86.2276 57.4392 86.263 57.2967L86.3516 56.9138C86.8032 57.1631 87.2636 57.3056 87.6975 57.3056C87.9366 57.3056 88.1668 57.1364 88.4236 56.798C88.6715 56.4596 88.7955 56.1034 88.7778 55.7472L86.4844 50.0389C85.9266 48.6319 85.4927 47.7057 85.2093 47.2427H86.9803C86.9803 47.2427 87.0334 47.4653 87.1485 47.866L87.6709 49.4245C87.8923 50.0478 88.1048 50.6267 88.3085 51.1343L89.6721 54.6073L91.7796 49.558C92.1869 48.5963 92.4702 47.8126 92.6385 47.2427H93.7365C93.2317 48.2044 92.7979 49.1395 92.4083 50.0033L89.7695 56.0678H89.7607Z" fill="white"/>
            <path d="M96.8445 56.0142C97.0481 55.5601 97.2164 54.999 97.3669 54.3044C97.6857 52.933 97.8894 50.6444 97.8894 47.857C97.4023 47.857 96.9507 47.9105 96.9507 47.9105V47.2515H104.309C104.238 47.9283 104.212 49.2641 104.212 51.2855V54.438C104.212 55.943 104.247 57.0651 104.327 57.7775H102.928V50.5642C102.928 50.3238 102.91 49.4511 102.857 47.9105C102.264 47.8748 100.856 47.857 98.6509 47.857C98.6509 53.5297 97.7388 58.0625 95.6845 58.0179C95.2595 58.0001 94.9584 57.9022 94.7548 57.6973L94.9407 57.074L95.0293 57.1274C95.1621 57.1986 95.3834 57.2788 95.6048 57.2788C96.0564 57.261 96.446 56.9404 96.8533 56.041" fill="white"/>
            <path d="M110.587 51.9892L111.145 51.9714C113.447 51.9179 114.899 53.0845 114.899 55.204C114.899 56.5042 114.094 57.457 112.827 57.6618C112.376 57.7776 111.836 57.8132 111.18 57.7954L109.728 57.7598H108.533C108.621 57.0474 108.648 55.9342 108.648 54.4203V50.5465C108.648 49.3621 108.612 48.2579 108.559 47.2427H110.038C109.95 47.9551 109.923 49.0504 109.923 50.5465V57.1453C110.091 57.1453 110.339 57.1453 110.667 57.1631C111.003 57.181 111.26 57.181 111.411 57.181C111.968 57.181 112.385 57.083 112.703 56.8782C113.359 56.5398 113.677 55.9431 113.677 55.1149C113.677 54.1888 113.323 53.5031 112.907 53.1647C112.278 52.7105 111.561 52.6036 111.048 52.5947C110.906 52.5947 110.782 52.5057 110.738 52.3721L110.587 51.9714V51.9892Z" fill="white"/>
            <path d="M118.601 50.2256C118.601 49.1926 118.565 48.1952 118.486 47.2246L120.186 47.1889C120.788 47.1711 121.195 47.1533 121.399 47.1533C123.17 47.1533 124.312 47.9192 124.312 49.2015C124.312 50.3325 123.621 51.0271 122.222 51.2854C124.241 51.4189 125.552 52.541 125.552 54.3488C125.552 55.2838 125.18 56.0942 124.454 56.7888C123.728 57.4834 122.771 57.8218 121.594 57.8218C121.505 57.8218 121.16 57.804 120.531 57.7862C119.911 57.7684 119.238 57.7506 118.494 57.7506C118.565 56.3257 118.592 55.2304 118.592 54.4467V50.2167L118.601 50.2256ZM120.434 51.0538H120.682C121.133 51.0538 121.594 50.9648 122.134 50.751C122.692 50.5284 123.072 50.003 123.072 49.3084C123.072 48.3555 122.479 47.8568 121.284 47.7856C120.54 47.7856 120.071 47.7856 119.867 47.8034C119.867 52.728 119.885 55.8449 119.902 57.145L121.452 57.1806C122.178 57.1985 122.816 56.9224 123.373 56.3703C123.931 55.8092 124.215 55.1503 124.215 54.3577C124.215 53.3959 123.763 52.6479 123.223 52.2917C122.957 52.1046 122.63 51.9533 122.249 51.8553C121.647 51.6772 121.248 51.6327 120.832 51.6238C120.664 51.6238 120.522 51.4991 120.487 51.3388L120.425 51.0627L120.434 51.0538Z" fill="white"/>
            <path d="M135.726 54.4469C136.213 55.8005 136.665 56.9047 137.054 57.7685H135.372C135.115 56.789 134.779 55.6847 134.362 54.4469L133.875 53.022C133.725 53.0042 133.318 53.0042 132.627 53.0042H131.715C131.246 53.0042 130.874 53.022 130.608 53.0398L129.988 54.6784C129.448 56.1834 129.094 57.2164 128.908 57.7596H127.916C128.474 56.5218 128.926 55.4532 129.262 54.5626L132.105 47.2781L133.114 47.1802L135.726 54.4469ZM132.627 52.3987C133.185 52.3987 133.539 52.3987 133.654 52.3809L132.308 48.4893L130.847 52.3987H132.636H132.627Z" fill="white"/>
            <path d="M142.536 52.2117L142.385 51.615L142.837 51.6328C143.12 51.6506 143.58 51.5794 144.183 51.3657C144.802 51.143 145.289 50.484 145.289 49.5846C145.289 48.4358 144.333 47.8392 143.235 47.8214C143.085 47.8214 142.828 47.8214 142.491 47.8392H141.73V54.4558C141.73 55.56 141.765 56.6554 141.845 57.7596H140.348C140.419 56.3348 140.446 55.2394 140.446 54.4558V50.582C140.446 49.4688 140.41 48.3468 140.331 47.2425H141.411C141.526 47.2425 141.951 47.2247 142.66 47.2069C143.386 47.1713 143.82 47.1713 143.97 47.2069C145.431 47.3227 146.529 48.1509 146.529 49.5223C146.529 50.2881 146.193 50.9471 145.502 51.4725C144.829 51.9979 143.935 52.2295 142.846 52.2206L142.527 52.2027L142.536 52.2117Z" fill="white"/>
            <path d="M149.406 53.6039L149.404 54.0225L178.633 54.1507L178.635 53.7322L149.406 53.6039Z" fill="white"/>
            <path d="M41.5354 53.12L41.5336 53.5386L70.763 53.6668L70.7648 53.2483L41.5354 53.12Z" fill="white"/>
            <path d="M199.109 8.01472C199.109 8.01472 202.332 9.1635 205.352 7.4715C208.362 5.7795 210.009 5.50344 210.009 5.50344C210.009 5.50344 206.644 4.28341 202.943 5.81512C200.499 6.83032 199.118 8.01472 199.118 8.01472" fill="white"/>
            <path d="M2.745 13.2866C2.745 13.2866 3.80757 16.1274 6.72965 17.2584C9.64288 18.3893 10.7851 19.3511 10.7851 19.3511C10.7851 19.3511 9.81997 16.1185 6.48172 14.6937C4.37428 13.7942 2.73615 13.2955 2.73615 13.2955" fill="white"/>
            <path d="M121.771 39.2276V25.6738H111.004V39.2276H107.878V9.84912H111.004V22.7707H121.771V9.84912H124.906V39.2276H121.771Z" fill="white"/>
            <path d="M145.024 36.387L145.52 38.0968C144.236 39.1921 142.253 39.7354 139.552 39.7354C136.408 39.7354 133.92 38.5064 132.105 36.0397C130.281 33.5818 129.369 29.7436 129.369 24.543C129.369 19.3423 130.343 15.4685 132.291 13.0196C134.239 10.5706 136.674 9.35059 139.596 9.35059C141.792 9.35059 143.66 9.68899 145.192 10.3569L144.732 12.1201C144.581 12.6812 143.997 12.975 143.457 12.7791C142.447 12.4229 141.261 12.2448 139.897 12.2448C137.781 12.2448 136.054 13.2333 134.699 15.2013C133.353 17.1694 132.672 20.2863 132.672 24.543C132.672 28.5147 133.353 31.5603 134.717 33.6709C136.081 35.7814 137.94 36.8411 140.313 36.8411C141.668 36.8411 142.908 36.5473 144.032 35.9506C144.431 35.7369 144.918 35.9506 145.042 36.387" fill="white"/>
            <path d="M161.733 38.3638L153.994 25.6293H152.488V39.2276H149.362V9.84912H152.488V23.5365L153.949 22.9488L161.042 10.7218C161.352 10.1875 161.919 9.85803 162.538 9.85803H165.133L157.5 22.5302L156.039 23.8749L157.748 25.558L166.222 39.2454H163.264C162.636 39.2454 162.06 38.9159 161.733 38.3816" fill="white"/>
            <path d="M49.2677 9.84912C48.8604 9.84912 48.4885 10.0718 48.2937 10.428L37.7654 29.2003L36.3043 33.1453H36.1361L36.4283 29.3695V9.84912H36.0564H32.7624V10.4636C32.7624 11.0959 32.9661 11.6836 33.3026 12.1645V39.2365H35.3923L46.204 20.0991L47.665 16.154H47.789L47.541 20.0189V38.533C47.541 38.9248 47.851 39.2365 48.2406 39.2365H50.6668V9.84912H49.2766H49.2677Z" fill="white"/>
            <path d="M101.139 9.84912C100.732 9.84912 100.36 10.0718 100.165 10.428L89.6366 29.2003L88.1756 33.1453H88.0073L88.2995 29.3695V9.84912H87.9276H84.6337V10.4636C84.6337 11.0959 84.8373 11.6836 85.1738 12.1645V39.2365H87.2635L98.0752 20.0991L99.5363 16.154H99.6602L99.4123 20.0189V38.533C99.4123 38.9248 99.7222 39.2365 100.112 39.2365H102.538V9.84912H101.148H101.139Z" fill="white"/>
            <path d="M185.906 9.84912C185.498 9.84912 185.126 10.0718 184.932 10.428L174.403 29.2003L172.942 33.1453H172.774L173.066 29.3695V9.84912H172.694H169.4V10.4636C169.4 11.0959 169.604 11.6836 169.941 12.1645V39.2365H172.03L182.842 20.0991L184.303 16.154H184.427L184.179 20.0189V38.533C184.179 38.9248 184.489 39.2365 184.879 39.2365H187.305V9.84912H185.915H185.906Z" fill="white"/>
            <path d="M208.61 9.84912C208.203 9.84912 207.831 10.0718 207.636 10.428L197.108 29.2003L195.647 33.1453H195.479L195.771 29.3695V9.84912H195.399H192.105V10.4636C192.105 11.0959 192.309 11.6836 192.645 12.1645V39.2365H194.735L205.546 20.0991L207.008 16.154H207.131L206.884 20.0189V38.533C206.884 38.9248 207.193 39.2365 207.583 39.2365H210.009V9.84912H208.619H208.61Z" fill="white"/>
            <path d="M41.237 0.276063C35.995 0.391832 21.4288 0 16.1868 0C11.3698 0 7.32317 0.632274 4.63132 2.13726C1.59413 3.84708 -0.0528589 6.94611 0.000269826 9.45739C0.0268342 10.7487 0.443009 12.1023 1.85977 13.2867C1.59413 12.5831 1.39047 12.0132 1.37276 11.2028C1.3462 10.054 1.60299 8.98541 2.06343 8.05927C3.05517 5.80623 6.41113 3.59773 12.397 3.46415C14.4601 3.41962 17.7364 3.56211 19.7287 3.63335V39.2277H22.8633V3.69569L25.9182 3.74021C27.822 3.77583 32.6833 3.70459 34.5074 3.51758C36.0746 3.35729 39.2978 2.90312 41.1042 1.56733C41.4584 1.30907 41.7063 0.810379 41.7063 0.65899C41.7063 0.409642 41.7948 0.258253 41.237 0.267158V0.276063Z" fill="white"/>
            <path d="M79.8262 9.84912H76.7005V36.3334H69.4838V9.84912H66.3492V36.3334H59.1326V9.84912H56.0068V38.5241C56.0068 38.9159 56.3168 39.2276 56.7064 39.2276H79.8351V9.84912H79.8262Z" fill="white"/>
            <path d="M78.8603 51.9892L79.4182 51.9714C81.5079 51.9179 82.907 52.853 83.1195 54.5984C83.1549 54.9012 83.1726 55.1951 83.1549 55.4622C83.0841 56.7001 82.3934 57.4303 81.1006 57.6618C80.649 57.7776 80.0912 57.8132 79.4536 57.7954L78.0103 57.7598H76.8149C76.9034 57.0474 76.93 55.9342 76.93 54.4203V50.5465C76.93 48.9525 76.8946 47.8571 76.8326 47.2427H81.8621V48.0709C81.4282 47.9551 80.2328 47.8839 78.2759 47.866C78.2228 48.6319 78.2051 49.5224 78.2051 50.5376V57.1364C78.3733 57.1364 78.6301 57.1364 78.9489 57.1542C79.2854 57.172 79.5422 57.172 79.6927 57.172C80.2505 57.172 80.6667 57.0741 80.9855 56.8693C81.6053 56.5487 81.9241 55.952 81.9241 55.106C81.9241 54.1799 81.5699 53.4942 81.1537 53.1558C80.4631 52.6304 79.6041 52.5591 79.0994 52.5947L78.8603 51.9714V51.9892Z" fill="white"/>
            <path d="M89.7606 56.0678C88.9282 57.9913 87.9276 58.3208 86.4312 57.644C86.2984 57.5817 86.2275 57.4392 86.2629 57.2967L86.3515 56.9138C86.8031 57.1631 87.2635 57.3056 87.6974 57.3056C87.9365 57.3056 88.1667 57.1364 88.4235 56.798C88.6714 56.4596 88.7954 56.1034 88.7777 55.7472L86.4843 50.0389C85.9265 48.6319 85.4926 47.7057 85.2092 47.2427H86.9802C86.9802 47.2427 87.0333 47.4653 87.1484 47.866L87.6709 49.4245C87.8922 50.0478 88.1047 50.6267 88.3084 51.1343L89.672 54.6073L91.7795 49.558C92.1868 48.5963 92.4701 47.8126 92.6384 47.2427H93.7364C93.2317 48.2044 92.7978 49.1395 92.4082 50.0033L89.7694 56.0678H89.7606Z" fill="white"/>
            <path d="M96.8444 56.0142C97.0481 55.5601 97.2163 54.999 97.3668 54.3044C97.6856 52.933 97.8893 50.6444 97.8893 47.857C97.4022 47.857 96.9507 47.9105 96.9507 47.9105V47.2515H104.309C104.238 47.9283 104.212 49.2641 104.212 51.2855V54.438C104.212 55.943 104.247 57.0651 104.327 57.7775H102.928V50.5642C102.928 50.3238 102.91 49.4511 102.857 47.9105C102.264 47.8748 100.856 47.857 98.6508 47.857C98.6508 53.5297 97.7387 58.0625 95.6844 58.0179C95.2594 58.0001 94.9583 57.9022 94.7547 57.6973L94.9406 57.074L95.0292 57.1274C95.162 57.1986 95.3834 57.2788 95.6047 57.2788C96.0563 57.261 96.4459 56.9404 96.8532 56.041" fill="white"/>
            <path d="M110.587 51.9892L111.145 51.9714C113.447 51.9179 114.899 53.0845 114.899 55.204C114.899 56.5042 114.094 57.457 112.827 57.6618C112.376 57.7776 111.836 57.8132 111.18 57.7954L109.728 57.7598H108.533C108.621 57.0474 108.648 55.9342 108.648 54.4203V50.5465C108.648 49.3621 108.612 48.2579 108.559 47.2427H110.038C109.949 47.9551 109.923 49.0504 109.923 50.5465V57.1453C110.091 57.1453 110.339 57.1453 110.667 57.1631C111.003 57.181 111.26 57.181 111.411 57.181C111.968 57.181 112.385 57.083 112.703 56.8782C113.359 56.5398 113.677 55.9431 113.677 55.1149C113.677 54.1888 113.323 53.5031 112.907 53.1647C112.278 52.7105 111.561 52.6036 111.047 52.5947C110.906 52.5947 110.782 52.5057 110.738 52.3721L110.587 51.9714V51.9892Z" fill="white"/>
            <path d="M118.601 50.2256C118.601 49.1926 118.565 48.1952 118.485 47.2246L120.186 47.1889C120.788 47.1711 121.195 47.1533 121.399 47.1533C123.17 47.1533 124.312 47.9192 124.312 49.2015C124.312 50.3325 123.621 51.0271 122.222 51.2854C124.241 51.4189 125.552 52.541 125.552 54.3488C125.552 55.2838 125.18 56.0942 124.454 56.7888C123.728 57.4834 122.771 57.8218 121.594 57.8218C121.505 57.8218 121.16 57.804 120.531 57.7862C119.911 57.7684 119.238 57.7506 118.494 57.7506C118.565 56.3257 118.592 55.2304 118.592 54.4467V50.2167L118.601 50.2256ZM120.434 51.0538H120.681C121.133 51.0538 121.593 50.9648 122.134 50.751C122.691 50.5284 123.072 50.003 123.072 49.3084C123.072 48.3555 122.479 47.8568 121.284 47.7856C120.54 47.7856 120.07 47.7856 119.867 47.8034C119.867 52.728 119.885 55.8449 119.902 57.145L121.452 57.1806C122.178 57.1985 122.815 56.9224 123.373 56.3703C123.931 55.8092 124.215 55.1503 124.215 54.3577C124.215 53.3959 123.763 52.6479 123.223 52.2917C122.957 52.1046 122.63 51.9533 122.249 51.8553C121.647 51.6772 121.248 51.6327 120.832 51.6238C120.664 51.6238 120.522 51.4991 120.487 51.3388L120.425 51.0627L120.434 51.0538Z" fill="white"/>
            <path d="M135.726 54.4469C136.213 55.8005 136.665 56.9047 137.054 57.7685H135.372C135.115 56.789 134.779 55.6847 134.362 54.4469L133.875 53.022C133.725 53.0042 133.318 53.0042 132.627 53.0042H131.715C131.245 53.0042 130.874 53.022 130.608 53.0398L129.988 54.6784C129.448 56.1834 129.094 57.2164 128.908 57.7596H127.916C128.474 56.5218 128.926 55.4532 129.262 54.5626L132.104 47.2781L133.114 47.1802L135.726 54.4469ZM132.627 52.3987C133.185 52.3987 133.539 52.3987 133.654 52.3809L132.308 48.4893L130.847 52.3987H132.636H132.627Z" fill="white"/>
            <path d="M142.536 52.2117L142.385 51.615L142.837 51.6328C143.12 51.6506 143.58 51.5794 144.183 51.3657C144.802 51.143 145.289 50.484 145.289 49.5846C145.289 48.4358 144.333 47.8392 143.235 47.8214C143.085 47.8214 142.828 47.8214 142.491 47.8392H141.73V54.4558C141.73 55.56 141.765 56.6554 141.845 57.7596H140.348C140.419 56.3348 140.446 55.2394 140.446 54.4558V50.582C140.446 49.4688 140.41 48.3468 140.331 47.2425H141.411C141.526 47.2425 141.951 47.2247 142.659 47.2069C143.386 47.1713 143.819 47.1713 143.97 47.2069C145.431 47.3227 146.529 48.1509 146.529 49.5223C146.529 50.2881 146.193 50.9471 145.502 51.4725C144.829 51.9979 143.935 52.2295 142.845 52.2206L142.527 52.2027L142.536 52.2117Z" fill="white"/>
            <path d="M149.406 53.6044L149.404 54.0229L178.633 54.1512L178.635 53.7327L149.406 53.6044Z" fill="white"/>
            <path d="M41.5354 53.1205L41.5336 53.5391L70.763 53.6666L70.7648 53.2481L41.5354 53.1205Z" fill="white"/>
            <path d="M199.109 8.01472C199.109 8.01472 202.332 9.1635 205.352 7.4715C208.362 5.7795 210.009 5.50344 210.009 5.50344C210.009 5.50344 206.644 4.28341 202.943 5.81512C200.499 6.83032 199.118 8.01472 199.118 8.01472" fill="white"/>
            <path d="M121.771 39.2276V25.6738H111.004V39.2276H107.878V9.84912H111.004V22.7707H121.771V9.84912H124.906V39.2276H121.771Z" fill="white"/>
            <path d="M145.024 36.387L145.52 38.0968C144.236 39.1921 142.253 39.7354 139.552 39.7354C136.408 39.7354 133.92 38.5064 132.105 36.0397C130.281 33.5818 129.369 29.7436 129.369 24.543C129.369 19.3423 130.343 15.4685 132.291 13.0196C134.239 10.5706 136.674 9.35059 139.596 9.35059C141.792 9.35059 143.66 9.68899 145.192 10.3569L144.732 12.1201C144.581 12.6812 143.997 12.975 143.457 12.7791C142.447 12.4229 141.261 12.2448 139.897 12.2448C137.781 12.2448 136.054 13.2333 134.699 15.2013C133.353 17.1694 132.672 20.2863 132.672 24.543C132.672 28.5147 133.353 31.5603 134.717 33.6709C136.081 35.7814 137.94 36.8411 140.313 36.8411C141.668 36.8411 142.908 36.5473 144.032 35.9506C144.431 35.7369 144.918 35.9506 145.042 36.387" fill="white"/>
            <path d="M161.733 38.3638L153.994 25.6293H152.488V39.2276H149.362V9.84912H152.488V23.5365L153.949 22.9488L161.042 10.7218C161.352 10.1875 161.919 9.85803 162.538 9.85803H165.133L157.5 22.5302L156.039 23.8749L157.748 25.558L166.222 39.2454H163.264C162.636 39.2454 162.06 38.9159 161.733 38.3816" fill="white"/>
            <path d="M49.2677 9.84912C48.8604 9.84912 48.4885 10.0718 48.2937 10.428L37.7654 29.2003L36.3043 33.1453H36.1361L36.4283 29.3695V9.84912H36.0564H32.7624V10.4636C32.7624 11.0959 32.9661 11.6836 33.3026 12.1645V39.2365H35.3923L46.204 20.0991L47.665 16.154H47.789L47.541 20.0189V38.533C47.541 38.9248 47.851 39.2365 48.2406 39.2365H50.6668V9.84912H49.2766H49.2677Z" fill="white"/>
            <path d="M101.139 9.84912C100.732 9.84912 100.36 10.0718 100.165 10.428L89.6366 29.2003L88.1756 33.1453H88.0073L88.2995 29.3695V9.84912H87.9276H84.6337V10.4636C84.6337 11.0959 84.8373 11.6836 85.1738 12.1645V39.2365H87.2635L98.0752 20.0991L99.5363 16.154H99.6602L99.4123 20.0189V38.533C99.4123 38.9248 99.7222 39.2365 100.112 39.2365H102.538V9.84912H101.148H101.139Z" fill="white"/>
            <path d="M185.906 9.84912C185.498 9.84912 185.126 10.0718 184.932 10.428L174.403 29.2003L172.942 33.1453H172.774L173.066 29.3695V9.84912H172.694H169.4V10.4636C169.4 11.0959 169.604 11.6836 169.941 12.1645V39.2365H172.03L182.842 20.0991L184.303 16.154H184.427L184.179 20.0189V38.533C184.179 38.9248 184.489 39.2365 184.879 39.2365H187.305V9.84912H185.915H185.906Z" fill="white"/>
            <path d="M208.61 9.84912C208.203 9.84912 207.831 10.0718 207.636 10.428L197.108 29.2003L195.647 33.1453H195.479L195.771 29.3695V9.84912H195.399H192.105V10.4636C192.105 11.0959 192.309 11.6836 192.645 12.1645V39.2365H194.735L205.546 20.0991L207.008 16.154H207.131L206.884 20.0189V38.533C206.884 38.9248 207.193 39.2365 207.583 39.2365H210.009V9.84912H208.619H208.61Z" fill="white"/>
            <path d="M2.74543 13.2866C2.74543 13.2866 3.808 16.1274 6.73008 17.2584C9.6433 18.3893 10.7856 19.3511 10.7856 19.3511C10.7856 19.3511 9.8204 16.1185 6.48215 14.6937C4.37471 13.7942 2.73657 13.2955 2.73657 13.2955" fill="white"/>
            <path d="M41.237 0.276063C35.995 0.391832 21.4288 0 16.1868 0C11.3698 0 7.32317 0.632274 4.63132 2.13726C1.59413 3.84708 -0.0528589 6.94611 0.000269826 9.45739C0.0268342 10.7487 0.443009 12.1023 1.85977 13.2867C1.59413 12.5831 1.39047 12.0132 1.37276 11.2028C1.3462 10.054 1.60299 8.98541 2.06343 8.05927C3.05517 5.80623 6.41113 3.59773 12.397 3.46415C14.4601 3.41962 17.7364 3.56211 19.7287 3.63335V39.2277H22.8633V3.69569L25.9182 3.74021C27.822 3.77583 32.6833 3.70459 34.5074 3.51758C36.0746 3.35729 39.2978 2.90312 41.1042 1.56733C41.4584 1.30907 41.7063 0.810379 41.7063 0.65899C41.7063 0.409642 41.7948 0.258253 41.237 0.267158V0.276063Z" fill="white"/>
            <path d="M79.8262 9.84912H76.7005V36.3334H69.4838V9.84912H66.3492V36.3334H59.1326V9.84912H56.0068V38.5241C56.0068 38.9159 56.3168 39.2276 56.7064 39.2276H79.8351V9.84912H79.8262Z" fill="white"/>
        </g>
        <defs>
            <clipPath id="clip0_6917_285">
                <rect width="210" height="58" fill="white"/>
            </clipPath>
        </defs>
    </symbol>
    <symbol id="icon-phone" viewBox="0 0 24 24" fill="none" xmlns="http://www.w3.org/2000/svg">
        <path d="M17.6335 15.5449L17.6335 15.5449L17.638 15.5464C19.0568 16.0153 20.5526 16.2533 22.0742 16.2533C22.8599 16.2533 23.5 16.8933 23.5 17.679V22.0742C23.5 22.8599 22.8599 23.5 22.0742 23.5C10.1785 23.5 0.5 13.8215 0.5 1.92581C0.5 1.14008 1.14008 0.5 1.92581 0.5H6.3333C7.11902 0.5 7.75909 1.14007 7.75904 1.92585V1.92587C7.75904 3.44705 7.9974 4.94078 8.46725 6.3653C8.63107 6.89113 8.49277 7.44455 8.11279 7.82402L8.08531 7.85147L8.0624 7.88282L7.09627 9.20501L6.91158 9.45777L7.05828 9.73432C8.75308 12.9291 11.0479 15.2241 14.2645 16.9411L14.5429 17.0897L14.7968 16.9024L16.1893 15.875L16.2222 15.8508L16.2508 15.8215C16.3728 15.6961 16.5862 15.5771 16.8551 15.5169C17.1206 15.4574 17.3989 15.4648 17.6335 15.5449Z" stroke="white"/>
    </symbol>
    <symbol id="icon-play" viewBox="0 0 20 25" fill="none" xmlns="http://www.w3.org/2000/svg">
        <path d="M20 12.5L0 0.5V24.5L20 12.5Z" fill="white"/>
    </symbol>
    <symbol id="icon-decor-1" viewBox="0 0 378 1168" fill="none" xmlns="http://www.w3.org/2000/svg">
        <g opacity="0.5">
            <path d="M124.507 802.354C124.507 802.354 172.705 973.377 305.25 1041.46C437.392 1109.55 489.205 1167.45 489.205 1167.45C489.205 1167.45 445.425 972.841 294.003 887.061C198.411 832.913 124.105 802.89 124.105 802.89" fill="#1F3834"/>
            <path fill-rule="evenodd" clip-rule="evenodd" d="M824 0.738569C790.084 0.268034 759.946 0 734.609 0C516.011 0 332.373 38.1242 210.216 128.871C72.3867 231.967 -2.35444 418.829 0.0565617 570.252C1.26206 648.111 20.1483 729.729 84.4417 801.145C72.3867 758.725 63.1445 724.36 62.3408 675.496C61.1353 606.228 72.7885 541.793 93.6838 485.949C138.689 350.098 290.984 216.932 562.624 208.878C634.411 206.819 738.563 211.39 824 215.57V0.738569Z" fill="#1F3834"/>
        </g>
    </symbol>
    <symbol id="icon-unique-1" xmlns="http://www.w3.org/2000/svg" fill="currentColor" viewBox="0 0 135 133">
        <path fill="currentColor" d="M131.455 4.47c-17.089 28.143-64.52 5.443-112.383 41.028a.737.737 0 0 1-1.027-.138.713.713 0 0 1 .14-1.005c16.15-12.483 35.963-19.778 56.154-22.976 14.787-2.837 30.623-2.107 44.199-8.734 4.291-2.256 7.739-5.686 10.215-9.783 1.081-1.726 3.794-.17 2.702 1.62z"/><path fill="currentColor" d="M68.492 46.874c3.102-2.71 11.512-11.381 3.719-20.19-.465-.519-1.373-.339-1.59.296-.918 2.71-1.47 5.665-1.729 8.82-.043.55-.908.571-.983.02a27.7 27.7 0 0 1-.011-7.739c.108-.815-.984-1.291-1.578-.677-4.313 4.404-6.162 9.656.335 19.237.4.593 1.275.71 1.826.233zM53.072 50.103c2.767-2.54 10.182-10.735 2.605-19.64-.443-.529-1.286-.38-1.46.233-.734 2.626-1.123 5.506-1.231 8.576-.022.54-.822.53-.92 0a28.7 28.7 0 0 1-.334-7.58c.075-.794-.962-1.292-1.492-.72-3.816 4.16-5.296 9.232 1.113 18.856.39.593 1.211.741 1.697.286zM38.622 55.61c2.605-2.394 9.587-10.175 2.313-19.28-.433-.54-1.222-.435-1.384.169-.68 2.562-1.016 5.378-1.102 8.406-.011.53-.768.487-.865-.042a29.6 29.6 0 0 1-.378-7.496c.064-.784-.93-1.324-1.416-.773-3.59 3.949-4.962 8.893 1.21 18.655.379.604 1.157.773 1.61.36zM25.958 61.188c2.464-2.213 9.08-9.36 2.475-17.501-.389-.477-1.124-.37-1.286.18-.67 2.33-1.038 4.891-1.167 7.634-.022.487-.725.455-.811-.032a26 26 0 0 1-.227-6.787c.065-.71-.843-1.186-1.308-.678-3.405 3.632-4.756 8.132.81 16.888.347.54 1.06.688 1.492.296zM52.015 2.258c4.67.465 18.365 2.964 19.046 16.252.043.783-.832 1.217-1.524.762-2.897-1.916-5.686-4.288-8.399-7.03-.475-.487-1.2.063-.821.624a39.6 39.6 0 0 0 6.129 7.179c.735.677.227 1.842-.735 1.673-6.994-1.24-12.658-4.892-15.003-18.052-.141-.805.475-1.493 1.297-1.408zM33.457 11.818c4.086-.571 16.344-1.26 20.376 10.112.237.666-.39 1.228-1.092.984-2.951-1.048-5.934-2.53-8.95-4.34-.53-.318-.994.306-.53.709a37.6 37.6 0 0 0 7.07 4.933c.8.434.67 1.546-.195 1.6-6.259.38-12.01-1.6-17.414-12.505-.335-.667.011-1.397.735-1.493M17.07 20.956c3.89-1.154 15.716-3.653 21.337 6.691.335.615-.195 1.24-.92 1.112-3.026-.572-6.16-1.546-9.36-2.848-.562-.233-.93.445-.41.762a37 37 0 0 0 7.609 3.695c.843.297.886 1.387.054 1.567-6.032 1.303-11.923.255-18.808-9.444-.421-.593-.194-1.344.486-1.546zM14.584 45.19c.735-.127 1.178.456.778 1.017-1.686 2.35-3.816 4.69-6.302 7.009-.432.413.108.868.616.519 2.378-1.588 4.562-3.367 6.529-5.379.605-.625 1.73-.392 1.6.328-.898 5.262-4.119 9.858-16.42 13.214-.756.2-1.426-.16-1.383-.773.26-3.473 2.086-13.785 14.582-15.945zM23.935 34.073c.476.403.314 1.08-.28 1.176-2.487.434-5.2.56-8.086.455-.508-.021-.53.635-.022.752 2.335.529 4.691.783 7.091.762.746 0 1.178.879.616 1.27-4.053 2.86-8.863 3.749-17.64-2.138-.54-.36-.649-1.038-.206-1.408 2.497-2.107 10.453-7.666 18.516-.869zM112.77 27.33c-7.609 4.668-9.133 14.684-6.615 22.636 1.589 4.976 3.167 10.47 4.173 15.563 2.853 14.071 3.221 28.735.021 42.785a.737.737 0 0 1-.875.551.72.72 0 0 1-.562-.858c1.491-6.914 2.151-13.997 2.021-21.059-.173-10.609-2.043-21.154-5.113-31.318-3.221-8.756-4.961-18.518 1.492-26.395.908-1.006 4.648-5.442 5.923-3.494.357.561.13 1.302-.465 1.599z"/><path fill="currentColor" d="M84.552 66.101c1.146-4.023 5.513-15.574 17.543-13.139a.901.901 0 0 1 .454 1.525c-2.162 2.128-4.734 4.055-7.62 5.823-.508.307-.13 1.07.432.868a32.2 32.2 0 0 0 7.394-3.79c.724-.498 1.686.222 1.383 1.037-2.205 5.908-6.356 10.08-18.527 9.148-.746-.053-1.264-.762-1.07-1.472zM88.638 81.061c1.146-3.642 5.513-14.102 17.543-11.9.714.127.962.921.454 1.376-2.162 1.927-4.734 3.674-7.62 5.273-.508.286-.13.974.432.783a33.6 33.6 0 0 0 7.394-3.43c.724-.455 1.686.201 1.383.932-2.205 5.347-6.356 9.137-18.527 8.29-.746-.053-1.264-.688-1.07-1.334zM90.09 96.297c1.08-3.441 5.253-13.32 17.327-11.477.713.106.983.847.475 1.281-2.129 1.842-4.669 3.526-7.523 5.082-.497.275-.108.91.443.73a34 34 0 0 0 7.329-3.356c.713-.434 1.686.16 1.394.847-2.108 5.05-6.183 8.672-18.375 8.11-.746-.031-1.276-.624-1.092-1.228zM90.66 110.03c.962-3.219 4.713-12.472 15.565-10.747.638.106.886.795.432 1.207-1.913 1.726-4.194 3.304-6.755 4.754-.454.254-.098.858.4.688a30.2 30.2 0 0 0 6.582-3.133c.638-.403 1.514.148 1.254.794-1.891 4.732-5.556 8.12-16.505 7.591-.67-.032-1.146-.582-.984-1.154zM134.815 58.489c-2.616-3.822-11.371-14.473-24.374-8.534-.768.35-.779 1.324-.022 1.694 3.167 1.578 6.734 2.827 10.615 3.833.681.18.497 1.07-.217 1.017a42.6 42.6 0 0 1-9.706-1.8c-.995-.307-1.859.709-1.254 1.46 4.442 5.453 10.55 8.577 24.202 4.151.843-.275 1.199-1.143.745-1.821zM134.32 79.283c-1.351-3.822-6.388-14.802-19.132-12.705-.757.127-.995.942-.433 1.429 2.378 2.043 5.178 3.907 8.302 5.632.551.308.173 1.017-.433.816a38.2 38.2 0 0 1-7.998-3.706c-.79-.476-1.784.18-1.438.953 2.54 5.611 7.102 9.624 20.04 8.957.789-.042 1.319-.699 1.081-1.366zM133.203 97.97c-.703-3.94-3.816-15.427-16.311-15.226-.735.01-1.092.784-.627 1.334 1.956 2.35 4.345 4.585 7.069 6.713.476.38 0 1.016-.54.73a36.2 36.2 0 0 1-7.069-4.785c-.681-.583-1.741-.085-1.525.72 1.557 5.865 5.297 10.46 17.771 11.678.767.074 1.372-.487 1.254-1.186zM111.215 112.031c-.216-.699-.984-.794-1.33-.18-1.459 2.626-2.702 5.611-3.772 8.904-.184.582-.875.328-.789-.286a40.7 40.7 0 0 1 2.097-8.3c.313-.837-.422-1.694-1.059-1.229-4.616 3.367-7.502 8.407-4.983 20.731.151.752.821 1.154 1.372.815 3.2-1.927 12.204-8.576 8.453-20.476zM117.486 98.468c-.605-.212-1.178.254-.994.815.745 2.372 1.88 4.786 3.329 7.231.259.434-.357.773-.703.392a28.3 28.3 0 0 1-4.032-5.781c-.335-.646-1.383-.593-1.502.085-.843 4.913.54 9.529 10.236 14.251.595.286 1.297.042 1.449-.519.854-3.197 2.453-12.832-7.783-16.485z"/><path fill="currentColor" d="M131.707 4.3c-4.519 10.726-12.171 14.517-22.224 18.953-20.58 9.105-28.763 21.016-33.573 42.191-2.27 9.296-6.302 18.677-13.76 25.178a.745.745 0 0 1-1.038-.032.7.7 0 0 1 .043-1.016c3.438-3.25 6.302-7.041 8.345-11.255 4.216-8.576 5.07-18.232 8.399-27.21 4.734-14.029 16.83-24.563 30.298-30.493 8.647-3.854 17.035-8.396 20.267-17.575.811-2.223 4.226-.964 3.243 1.26"/><path fill="currentColor" d="M81.039 99.792c-6.4-18.592-7.426-39.768 1.62-57.714.476-.963 2.011-.264 1.503.731-6.604 13.076-7.912 28.163-5.329 42.425.822 4.775 2.076 9.486 3.6 14.102.292.868-1.103 1.366-1.405.445z"/><path fill="currentColor" d="M48.695 80.373C65.18 78.18 73.815 70.346 77.33 55.3zM74.523 52.93c-3.73 6.247-11.966 6.596-18.452 7.03-6.453.424-13.068 1.292-18.472 4.945-.779.53-1.633-.635-.833-1.186 8.367-6.014 19.295-4.605 28.807-6.712 3.07-.763 5.761-2.457 7.307-5.061.637-1.07 2.324-.096 1.643.974z"/><path fill="currentColor" d="M45.375 72.54s.778-11.404 13.479-13.638zM122.943 31.098c-3.361-.455-6.474 1.853-6.939 5.146s1.891 6.342 5.253 6.797 6.475-1.853 6.94-5.145c.464-3.293-1.892-6.342-5.254-6.798m-.713 8.396c.011.763-.216 1.356-.638 1.45-.421.096-.897-.317-1.243-1.005-.778.01-1.383-.212-1.481-.625-.097-.402.325-.878 1.027-1.217-.011-.763.216-1.355.638-1.45.411-.096.897.317 1.243 1.005.778-.01 1.383.212 1.481.625.097.402-.325.879-1.027 1.217M121.24 122.184c-2.983.064-5.35 2.478-5.286 5.4s2.53 5.241 5.513 5.177c2.983-.063 5.351-2.477 5.286-5.399s-2.53-5.241-5.513-5.178m-.443 5.093c.119.657 0 1.207-.346 1.345s-.821-.159-1.221-.699c-.671.116-1.233 0-1.373-.339-.141-.339.162-.805.713-1.196-.119-.657 0-1.207.346-1.345s.822.159 1.222.699c.67-.117 1.232 0 1.372.339.141.338-.162.804-.713 1.196M99.154 6.038c-1.978-2.71-5.816-3.335-8.583-1.408-2.767 1.937-3.405 5.696-1.437 8.407 1.978 2.71 5.815 3.335 8.582 1.408 2.767-1.938 3.405-5.697 1.438-8.407m-5.113 5.146c-.238.349-.876.37-1.61.106-.563.529-1.157.772-1.514.55s-.378-.857-.108-1.578c-.54-.55-.79-1.132-.562-1.482s.875-.37 1.61-.106c.562-.529 1.157-.773 1.514-.55.356.222.378.857.108 1.577.54.55.789 1.133.562 1.483M131.117 18.425c-2.302-.307-4.421 1.26-4.734 3.515-.314 2.255 1.286 4.33 3.589 4.637s4.421-1.26 4.734-3.515-1.286-4.33-3.589-4.637m.465 6.162c-.659 0-1.2-.53-1.2-1.175 0-.646.541-1.176 1.2-1.176.66 0 1.2.53 1.2 1.176s-.54 1.175-1.2 1.175M96.86 41.115c-1.967-1.207-4.55-.635-5.793 1.292-1.232 1.927-.648 4.457 1.319 5.675s4.55.635 5.793-1.292c1.233-1.927.649-4.457-1.318-5.675m-1.696 2.71a1.2 1.2 0 0 1-1.59.583c-.605-.276-.875-.964-.594-1.557a1.204 1.204 0 0 1 1.59-.582c.605.275.875.964.594 1.556M131.369 122.163c1.886 0 3.416-1.498 3.416-3.346 0-1.847-1.53-3.345-3.416-3.345-1.887 0-3.416 1.498-3.416 3.345s1.529 3.346 3.416 3.346M33.963 7.732c1.886 0 3.415-1.498 3.415-3.345S35.85 1.04 33.963 1.04s-3.416 1.498-3.416 3.346c0 1.847 1.53 3.345 3.416 3.345M112.665 1.93c-2.194-.74-4.583.392-5.34 2.541s.4 4.49 2.595 5.23c2.194.742 4.583-.391 5.339-2.54s-.4-4.49-2.594-5.23m-1.319 4.934c-.129.635-.756 1.048-1.416.921a1.17 1.17 0 0 1-.94-1.387c.13-.645.757-1.048 1.416-.92.649.126 1.07.74.94 1.386M82.564 4.45C82.327 2.195 80.262.543 77.96.787c-2.303.232-3.989 2.255-3.74 4.51.237 2.255 2.302 3.907 4.604 3.663 2.303-.233 3.989-2.255 3.74-4.51m-5.112.921c-.649.159-1.297-.233-1.449-.858a1.165 1.165 0 0 1 .876-1.418c.648-.16 1.297.233 1.448.857a1.165 1.165 0 0 1-.875 1.419M27.017 10.199c-.237-2.256-2.302-3.907-4.604-3.664-2.303.233-3.989 2.255-3.74 4.51.238 2.256 2.302 3.907 4.605 3.664 2.302-.233 3.988-2.255 3.74-4.51m-5.112.92c-.649.16-1.297-.232-1.449-.857a1.165 1.165 0 0 1 .876-1.419c.638-.148 1.297.233 1.448.858a1.18 1.18 0 0 1-.875 1.419M5.86 18.245c-2.314-.201-4.357 1.461-4.562 3.727s1.492 4.267 3.805 4.468 4.356-1.461 4.561-3.727-1.491-4.267-3.804-4.468m.756 6.14a1.19 1.19 0 0 1-1.254-1.121c-.032-.657.476-1.197 1.146-1.229a1.18 1.18 0 0 1 1.254 1.123c.032.656-.476 1.196-1.146 1.228M11.687 4.661C9.71 1.951 5.872 1.326 3.105 3.253.348 5.191-.3 8.95 1.678 11.66c1.978 2.71 5.815 3.335 8.582 1.408 2.768-1.938 3.405-5.696 1.438-8.407zM6.574 9.807c-.237.35-.875.37-1.61.106-.562.53-1.157.773-1.513.55-.357-.222-.379-.857-.109-1.577-.54-.55-.789-1.133-.562-1.482.227-.35.876-.371 1.611-.106.562-.53 1.157-.773 1.513-.55.357.221.379.857.108 1.577.54.55.79 1.133.562 1.482M33.49 101.156c.304-.127.412-.603.304-1.196.497-.35.767-.762.637-1.059s-.616-.402-1.221-.296c-.357-.487-.778-.752-1.081-.625s-.41.603-.303 1.196c-.497.35-.767.763-.637 1.059.13.297.616.402 1.221.297.357.487.778.751 1.08.624M77.617 116.118c.346-.138.465-.688.346-1.345.562-.392.865-.858.714-1.196-.152-.339-.703-.456-1.373-.339-.4-.551-.876-.847-1.222-.699-.345.148-.464.688-.345 1.345-.562.391-.865.857-.714 1.196s.703.455 1.373.339c.4.55.876.847 1.221.699M54.565 111.544c.4.169.962-.159 1.438-.784.778.159 1.426.032 1.61-.349s-.162-.943-.8-1.408c.162-.763.033-1.398-.356-1.578-.39-.18-.962.159-1.438.784-.778-.159-1.427-.032-1.61.349s.162.942.8 1.408c-.163.762-.033 1.398.356 1.578M15.62 92.665c.4.17.962-.159 1.437-.784.779.16 1.427.032 1.611-.349s-.162-.942-.8-1.408c.162-.762.033-1.398-.357-1.578-.389-.18-.962.16-1.437.784-.779-.159-1.427-.032-1.61.35-.185.38.161.941.8 1.407-.163.763-.033 1.398.356 1.578M22.913 117.673c.379-.349.26-1.112-.238-1.916.53-.784.692-1.536.325-1.906-.368-.371-1.135-.254-1.957.233-.8-.519-1.567-.678-1.945-.318s-.26 1.112.237 1.916c-.53.784-.691 1.536-.324 1.906.368.371 1.135.254 1.957-.233.8.519 1.567.678 1.945.318M24.285 75.503c-.4.17-.962-.159-1.438-.783-.778.159-1.427.031-1.61-.35-.184-.38.162-.942.8-1.408-.163-.762-.033-1.397.356-1.577.39-.18.962.158 1.438.783.778-.159 1.427-.032 1.61.35.184.38-.162.942-.8 1.408.163.762.033 1.397-.356 1.577M41.418 84.82c-.152-.402-.79-.55-1.579-.445-.443-.646-.983-1.016-1.394-.857-.41.158-.562.772-.454 1.545-.66.434-1.038.964-.876 1.366s.79.55 1.579.445c.443.646.983 1.016 1.394.858.41-.16.562-.773.454-1.546.66-.434 1.038-.964.876-1.366M44.379 116.636c-.152-.402-.79-.55-1.579-.445-.443-.645-.983-1.016-1.394-.857s-.562.773-.454 1.546c-.66.434-1.038.963-.875 1.365.162.403.788.551 1.578.445.443.646.983 1.017 1.394.858s.562-.773.454-1.546c.66-.434 1.038-.964.876-1.366"/><path fill="currentColor" d="M83.92 117.409a6.19 6.19 0 0 1-3.675 4.214c-3.21 1.312-6.886-.18-8.226-3.314-1.34-3.145.184-6.745 3.383-8.058a6.4 6.4 0 0 1 2.4-.476c-.865-2.615-3.373-4.51-6.335-4.51h-.183c0-.085.01-.17.01-.254 0-5.802-6.658-9.01-11.306-6.088-.01-3.886-4.042-6.438-7.599-5.157.065-4.478-3.837-8.035-8.377-7.654a6.05 6.05 0 0 1-1.827 4.076c-2.453 2.403-6.442 2.403-8.895 0a6.077 6.077 0 0 1 0-8.714c.41-.402.864-.73 1.35-1.005 3.578-5.188-.972-12.504-7.371-11.636.68.984 1.08 2.17 1.08 3.451 0 3.399-2.81 6.162-6.29 6.162s-6.291-2.752-6.291-6.162c0-1.45.519-2.784 1.373-3.843-.692-2.721-3.2-4.743-6.194-4.743-3.524 0-6.388 2.805-6.388 6.257 0 .752.14 1.472.389 2.139-2.26.942-3.837 3.134-3.837 5.696 0 1.704.702 3.25 1.837 4.372a5.1 5.1 0 0 0-.238 1.589c0 2.128 1.254 3.96 3.081 4.849-2.713.826-4.68 3.314-4.68 6.247 0 2.308 1.232 4.34 3.08 5.505-2.237 1.133-3.761 3.409-3.761 6.046 0 3.186 2.237 5.855 5.264 6.596a5.316 5.316 0 0 0 .984 5.675c-2.195 1.154-3.687 3.43-3.687 6.035 0 3.79 3.135 6.86 7.005 6.86a7.02 7.02 0 0 0 6.031-3.388 5.588 5.588 0 0 0 6.485-.508c.995 2.679 3.611 4.595 6.692 4.595a7.14 7.14 0 0 0 6.334-3.79 6.4 6.4 0 0 0 3.513 1.048 6.33 6.33 0 0 0 5.426-3.028c1.092 2.901 3.924 4.965 7.264 4.965a7.8 7.8 0 0 0 6.053-2.858 6.5 6.5 0 0 0 3.535 1.048 6.41 6.41 0 0 0 4.799-2.149 6.08 6.08 0 0 0 5.112 2.763 6.09 6.09 0 0 0 4.648-2.128 7.23 7.23 0 0 0 5.956 3.081c3.978 0 7.21-3.155 7.21-7.062 0-3.187-2.162-5.887-5.124-6.755zM5.986 75.789c.227-.286.8-.254 1.416.031.53-.423 1.07-.592 1.362-.36.291.234.259.784-.033 1.388.433.518.605 1.048.368 1.334-.227.285-.8.254-1.416-.032-.53.423-1.07.593-1.362.36-.292-.223-.26-.784.032-1.387-.432-.519-.605-1.048-.367-1.334m2.853 32.546c.12.657 0 1.207-.346 1.345s-.821-.159-1.221-.699c-.67.116-1.232 0-1.373-.339-.14-.339.162-.805.714-1.196-.12-.657 0-1.207.345-1.345.346-.138.822.159 1.222.699.67-.117 1.232 0 1.373.339.14.339-.163.804-.714 1.196m36.47-5.781a.94.94 0 0 1 .811 1.048c-.065.509-.551.858-1.07.794a.934.934 0 0 1-.81-1.048.955.955 0 0 1 1.07-.794M17.497 83.232c3.47 0 6.291 2.753 6.291 6.162 0 3.41-2.81 6.162-6.29 6.162s-6.292-2.753-6.292-6.162c0-3.41 2.81-6.162 6.291-6.162m-.151 18.031a.954.954 0 0 1-1.07.794.936.936 0 0 1-.81-1.049c.064-.508.55-.857 1.07-.794.518.064.875.54.81 1.049m9.707 15.648c-1.546 3.78-5.935 5.622-9.804 4.108-3.86-1.514-5.74-5.813-4.194-9.603s5.934-5.622 9.804-4.108c3.859 1.514 5.74 5.813 4.194 9.603m5.177 9.592c-.097.72-.778 1.218-1.513 1.123a1.32 1.32 0 0 1-1.146-1.483c.098-.719.778-1.217 1.513-1.122a1.32 1.32 0 0 1 1.146 1.482m-3.718-23.388c-1.19-2.795.162-6.003 3.005-7.167 2.854-1.165 6.129.158 7.318 2.943 1.189 2.795-.163 6.003-3.005 7.168-2.854 1.164-6.13-.159-7.318-2.944m16.624 18.899c-2.453 2.404-6.442 2.404-8.896 0a6.077 6.077 0 0 1 0-8.713c2.454-2.404 6.443-2.404 8.896 0a6.077 6.077 0 0 1 0 8.713m3.243-27.136c-.28.244-.832.106-1.383-.286-.606.318-1.168.382-1.416.106-.249-.275-.108-.815.291-1.355-.324-.593-.389-1.143-.108-1.387.281-.243.833-.106 1.384.286.605-.318 1.167-.381 1.416-.106s.108.815-.292 1.355c.324.593.39 1.144.108 1.387m9.404 27.93c.119.657 0 1.207-.346 1.345s-.821-.159-1.221-.699c-.67.117-1.232 0-1.373-.339-.14-.338.162-.804.713-1.196-.118-.656 0-1.207.346-1.345s.822.159 1.222.699c.67-.116 1.232 0 1.372.339s-.162.805-.713 1.196m-1.351-8.364c-3.47 0-6.291-2.753-6.291-6.162s2.81-6.162 6.291-6.162c3.48 0 6.29 2.753 6.29 6.162s-2.81 6.162-6.29 6.162m11.544-1.016c-.097.72-.778 1.217-1.513 1.122a1.32 1.32 0 0 1-1.146-1.482c.097-.72.778-1.218 1.513-1.123a1.32 1.32 0 0 1 1.146 1.483m17.057 13.668c-.076.562-.605.943-1.167.869a1.02 1.02 0 0 1-.887-1.144c.076-.561.606-.942 1.168-.868.573.074.962.593.886 1.143"/>
    </symbol>
    <symbol id="icon-unique-2" xmlns="http://www.w3.org/2000/svg" fill="currentColor" viewBox="0 0 135 133">
        <path fill="currentColor" d="M88.289 37.749c.614-.657.064-1.536-.808-1.282a228 228 0 0 1-16.82 4.162c-.733.148-1.304-.508-1.013-1.165a168 168 0 0 1 7.829-15.26c.323-.572-.054-1.175-.722-1.144-1.83.096-3.672.17-5.513.212-.463.01-.83-.317-.83-.752-.021-4.5.216-8.959.7-13.364.087-.762-.893-1.08-1.507-.487a272 272 0 0 0-5.578 5.517c-.324.329-.84.413-1.196.18-.398-.254-.797-.519-1.195-.783-.485-.318-1.195-.075-1.422.497a129 129 0 0 0-1.96 5.401c-.215.646-1.044.89-1.518.445-.215-.201-.441-.402-.657-.604-.474-.444-1.303-.222-1.529.434a153 153 0 0 0-2.681 8.854c-.27 1.006-1.734.91-1.831-.128-.377-4.14-.55-8.27-.528-12.39a.89.89 0 0 0-.495-.804c-.776-.371-1.54-.752-2.315-1.134a.91.91 0 0 1-.485-.847c.108-2.086.27-4.15.474-6.227.086-.9-1.002-1.334-1.594-.614a190 190 0 0 0-5.417 6.905c-.517.688-1.55.392-1.626-.477a130 130 0 0 1-.495-7.391c-.032-.72-.765-1.134-1.357-.752-.69.434-1.368.879-2.046 1.323a.85.85 0 0 1-1.13-.158 118 118 0 0 1-3.813-4.713c-.495-.635-1.443-.339-1.594.519-.377 2.15-.7 4.31-.98 6.47-.064.477-.409.848-.84.89l-2.358.222c-.69.064-1.066.932-.7 1.6 1.249 2.266 2.563 4.479 3.93 6.65.485.762-.086 1.768-.904 1.599-2.8-.583-5.6-1.24-8.4-1.96-.894-.232-1.464.996-.818 1.78a141 141 0 0 0 4.49 5.2c.27.296.367.72.27 1.1-.248.943-.496 1.896-.733 2.85-.097.38.011.794.28 1.09a140 140 0 0 0 9.822 9.68c.85.751.183 2.128-.84 1.715a155 155 0 0 1-9.154-4.035c-.678-.328-1.357.222-1.25 1.027.055.36.098.72.152 1.09.118.795-.55 1.356-1.239 1.039a164 164 0 0 1-5.793-2.891c-.614-.318-1.25.095-1.26.847 0 .614-.011 1.228-.022 1.843 0 .55-.355.963-.84.963-2.692 0-5.395-.053-8.098-.148-.883-.032-1.163 1.27-.42 2.001A159 159 0 0 0 15.395 54.09c.452.349.646.974.463 1.45a213 213 0 0 0-2.176 5.687c-.258.699.323 1.599 1.066 1.673 6.45.7 12.89 1.09 19.287 1.197.797.01 1.411.91 1.088 1.588a220 220 0 0 0-6.849 16.287c-.334.88.84 1.949 1.68 1.536 3.63-1.78 7.226-3.59 10.801-5.433.442-.222 1.055-.053 1.422.403.247.296.495.603.743.9.495.604 1.4.656 1.733.095 1.497-2.499 3.026-4.966 4.599-7.423.366-.562 1.281-.498 1.733.127.69.942 1.379 1.874 2.09 2.796.56.72 1.669.614 1.83-.17 1.002-4.787 2.208-9.499 3.597-14.127v-.01c3.263 3.389 6.785 6.544 10.866 9.361 1.346.794 2.498-.656 1.572-1.228a76.6 76.6 0 0 1-11.447-8.748 202 202 0 0 0 14.936-1.948c.819-.138 1.066-1.09.42-1.567-.829-.614-1.637-1.24-2.455-1.875-.538-.423-.42-1.207.215-1.482a375 375 0 0 0 8.152-3.685c.603-.286.743-1.007.28-1.409-.226-.201-.463-.402-.689-.604-.344-.296-.355-.804-.032-1.164 2.617-2.88 5.266-5.74 7.947-8.557zm-62.804-11.83c-.55-.497.075-1.514.69-.984a138 138 0 0 0 14.31 10.696c-4.759-8.8-8.388-17.992-11.005-27.661-.204-.741.85-1.154 1.077-.392 2.8 9.468 6.59 18.606 11.329 27.258 0-5.877.366-11.701 1.087-17.43.097-.742 1.196-.636 1.131.105a138.6 138.6 0 0 0-.355 20.63c2.767 4.754 5.793 9.34 8.96 13.85.441.626-.474 1.23-.948.657-3.554-4.278-6.634-8.885-9.412-13.671A139 139 0 0 1 25.463 25.92zm27.04 35.085c-2.336 2.584-4.953 4.903-7.484 7.296s-5.115 4.755-7.667 7.127c-.528.498-1.508-.466-1.002-.985 2.456-2.478 4.922-4.935 7.452-7.339 2.52-2.382 5.04-4.871 7.797-7 .528-.413 1.357.382.894.89zm4.297-3.866c-.043.424-.43.71-.883.657a172 172 0 0 1-19.48-3.59 471 471 0 0 1-14.14 4.755c-.69.222-1.27-1.027-.55-1.271a520 520 0 0 0 11.803-4.215 170 170 0 0 1-21.688-7.285c-.69-.286-.55-1.61.248-1.282a168 168 0 0 0 21.15 6.99 147 147 0 0 1-8.13-7.763c-.55-.572.15-1.504.764-.9a143 143 0 0 0 10.607 9.467A171 171 0 0 0 55.25 56.09a144 144 0 0 1 3.285-17.378 123 123 0 0 1-2.37-12.03c-.097-.699 1.013-.91 1.131-.222.55 3.113 1.217 6.227 2.014 9.319a146 146 0 0 1 6.537-18.66c.269-.635 1.313-.37 1.044.297a144 144 0 0 0-6.375 19.125 518 518 0 0 1 9.229-8.228c.527-.455 1.292.233.743.741a449 449 0 0 0-10.607 10.06 142 142 0 0 0-3.059 18.014zm21.98-13.66c-2.93 1.959-5.87 3.886-8.831 5.782-2.961 1.906-5.923 3.833-9.078 5.443-.614.307-1.25-.562-.679-.975 2.876-2.054 5.923-3.812 8.939-5.633s6.03-3.643 9.045-5.475c.614-.37 1.217.455.604.858M76.406 122.974c4.448.074 8.97-2.192 12.061-5.348 1.142-1.091 2.068-2.372 2.994-3.643.55-.73 1.712.053 1.206.816-2.552 4.288-6.375 7.953-11.21 9.658-1.335.37-6.31 2.234-6.472-.223-.022-.762.668-1.355 1.421-1.271z"/><path fill="currentColor" d="M91.743 116.017v.01c1.045 3.4 1.95 6.852 2.703 10.368.119.572.948.646 1.346.116a104 104 0 0 0 1.53-2.065c.333-.455 1-.508 1.27-.095a220 220 0 0 1 3.403 5.432c.248.403.905.371 1.271-.074.183-.222.366-.444.538-.667.27-.328.722-.466 1.045-.296a423 423 0 0 0 7.958 3.95c.614.296 1.475-.488 1.228-1.133a159 159 0 0 0-5.105-11.946c-.237-.497.216-1.154.797-1.175a156 156 0 0 0 14.172-.953c.549-.064.969-.731.775-1.239a140 140 0 0 0-1.626-4.173c-.14-.349 0-.804.334-1.069a114 114 0 0 0 9.864-8.684c.55-.54.334-1.493-.312-1.472-1.981.074-3.974.127-5.955.138-.356 0-.614-.297-.625-.699 0-.456-.011-.9-.021-1.356-.011-.55-.485-.857-.937-.614-1.4.742-2.822 1.462-4.243 2.15-.506.243-.991-.17-.915-.763.032-.264.075-.529.107-.804.076-.593-.42-.996-.915-.752a122 122 0 0 1-6.709 3.007c-.754.307-1.249-.699-.625-1.26a101 101 0 0 0 7.172-7.148.9.9 0 0 0 .205-.805c-.183-.699-.366-1.398-.549-2.086a.9.9 0 0 1 .194-.815c1.12-1.25 2.218-2.531 3.284-3.844.474-.583.043-1.483-.614-1.303-2.046.54-4.103 1.027-6.16 1.472-.603.127-1.023-.614-.667-1.176a96 96 0 0 0 2.864-4.903c.27-.487-.021-1.133-.517-1.175l-1.733-.159c-.313-.032-.571-.296-.614-.646a119 119 0 0 0-.743-4.755c-.108-.624-.819-.847-1.174-.37a82 82 0 0 1-2.789 3.473.64.64 0 0 1-.829.127c-.507-.317-1.013-.646-1.508-.963-.442-.276-.98.031-1.002.56-.064 1.812-.172 3.633-.333 5.433a.658.658 0 0 1-1.196.35 155 155 0 0 0-4.016-5.052c-.442-.529-1.239-.2-1.174.456.161 1.514.28 3.04.377 4.575a.66.66 0 0 1-.345.624c-.56.286-1.13.572-1.69.848a.65.65 0 0 0-.367.593 96 96 0 0 1-.334 9.107c-.064.762-1.141.836-1.346.106a111 111 0 0 0-2.003-6.502c-.161-.477-.775-.646-1.12-.308-.161.149-.323.297-.474.445-.355.328-.958.148-1.12-.317a97 97 0 0 0-1.464-3.961c-.162-.424-.69-.593-1.045-.36-.29.19-.581.392-.872.582-.258.17-.635.117-.883-.127a163 163 0 0 0-4.124-4.024c-.453-.434-1.174-.19-1.11.37.377 3.23.571 6.513.571 9.817 0 .318-.258.562-.603.551a128 128 0 0 1-4.049-.138c-.485-.02-.765.424-.528.837 2.111 3.611 4.06 7.339 5.816 11.183.215.476-.205.964-.744.858a171 171 0 0 1-12.384-2.997c-.646-.18-1.044.466-.592.942a403 403 0 0 1 5.88 6.259.597.597 0 0 1-.022.858c-.161.148-.334.296-.506.444-.334.297-.237.826.205 1.038 1.981.921 3.984 1.811 5.998 2.679.463.202.55.784.162 1.091-.593.466-1.196.932-1.799 1.387-.474.35-.28 1.049.323 1.155 3.619.582 7.29 1.048 10.984 1.376m12.514-15.545c-2.025 3.526-4.265 6.925-6.86 10.081-.345.424-1.023-.021-.7-.477 2.315-3.325 4.512-6.703 6.526-10.208a101.6 101.6 0 0 0-.345-15.165c-.053-.54.765-.624.83-.084.549 4.214.85 8.493.872 12.803a102 102 0 0 0 8.216-20.078c.162-.562.937-.265.797.285a94 94 0 0 1-7.969 20.365 100 100 0 0 0 10.478-7.922c.453-.391.916.36.517.72a102 102 0 0 1-12.351 9.669zm-6.72 15.567c2.035 1.546 3.898 3.367 5.761 5.114a238 238 0 0 1 5.514 5.369c.377.371-.334 1.091-.732.731-1.885-1.737-3.791-3.452-5.665-5.21s-3.801-3.452-5.535-5.337c-.345-.371.259-.953.657-.657zm-6.149-15.387a339 339 0 0 0-7.84-7.36c-.409-.37.151-.88.539-.551a362 362 0 0 1 6.816 6.015 106 106 0 0 0-4.76-14.031c-.204-.488.56-.689.765-.223a106 106 0 0 1 4.878 13.682 90 90 0 0 0 1.444-6.851c.086-.509.904-.35.829.158a91 91 0 0 1-1.691 8.853 106 106 0 0 1 2.488 12.761c4.587-.593 9.175-1.44 13.751-2.563a107 107 0 0 0 7.754-6.999c.452-.445.969.233.56.656a112 112 0 0 1-5.944 5.74 126 126 0 0 0 15.507-5.221c.581-.243.689.731.183.943a126 126 0 0 1-15.906 5.443 371 371 0 0 0 8.691 3.05c.527.18.107 1.09-.399.931a322 322 0 0 1-10.413-3.441 128 128 0 0 1-14.301 2.711c-.323.042-.614-.17-.646-.477-.496-4.5-1.282-8.916-2.326-13.226zm-13.44 2.636c2.219 1.335 4.448 2.658 6.666 3.993s4.48 2.605 6.59 4.109c.42.296-.042.942-.494.72-2.327-1.165-4.513-2.574-6.699-3.961a375 375 0 0 1-6.515-4.215c-.452-.296 0-.9.442-.635zM34.411 114.895a184 184 0 0 0 2.477 4.511c.194.35-.14.667-.485.466a100 100 0 0 0-6.762-3.569c-.291-.137-.614.085-.56.392a77 77 0 0 0 1.68 7.381c.075.276-.151.498-.431.413-.776-.233-1.55-.466-2.337-.677-.194-.053-.388.042-.442.233a50 50 0 0 0-1.163 5.813c-.043.339-.495.371-.7.053a103 103 0 0 1-1.787-2.954c-.108-.18-.312-.265-.496-.201-.204.063-.398.137-.603.211-.237.085-.517-.095-.549-.36a65 65 0 0 1-.247-2.531c-.022-.296-.345-.487-.604-.349a9 9 0 0 0-.344.191.417.417 0 0 1-.603-.35 64 64 0 0 1-.183-4.088c0-.455-.646-.571-.797-.137a58 58 0 0 0-1.583 5.263.39.39 0 0 1-.302.296c-.377.075-.743.159-1.12.244a.4.4 0 0 0-.301.318c-.183.9-.345 1.81-.485 2.721-.064.403-.581.466-.754.096a96 96 0 0 1-1.572-3.537c-.14-.35-.625-.329-.754.031a63 63 0 0 0-1.023 3.124c-.097.307-.452.403-.667.18-.248-.264-.496-.519-.733-.783a.37.37 0 0 0-.506-.053 61 61 0 0 0-2.154 1.62c-.28.222-.657 0-.624-.392.075-.964.172-1.927.29-2.88.022-.212-.086-.403-.258-.466-.323-.117-.657-.233-.99-.35-.291-.095-.356-.508-.13-.762a65 65 0 0 1 2.412-2.436c.291-.275.162-.773-.215-.783a90 90 0 0 0-3.812-.053c-.41 0-.517-.583-.162-.848a67 67 0 0 1 2.499-1.757.54.54 0 0 0 .237-.445v-1.303c0-.169.096-.339.236-.434a62 62 0 0 1 5.277-3.113c.452-.233.313-.901-.172-.826a63 63 0 0 0-4.372.762c-.323.064-.56-.243-.42-.572.064-.148.118-.296.183-.455.14-.328-.086-.646-.42-.572a63 63 0 0 0-2.8.625c-.302.074-.528-.18-.452-.498l.193-.794c.065-.233-.043-.455-.258-.498a96 96 0 0 0-3.49-.794c-.387-.085-.354-.667.044-.9a70 70 0 0 1 7.075-3.611c.237-.106.388-.35.356-.572a75 75 0 0 1-.313-2.669c-.032-.328.313-.656.646-.603 2.843.381 5.654.9 8.41 1.535.345.074.7-.243.647-.561a96 96 0 0 1-1.152-7.71c-.043-.412.57-.74.893-.476a314 314 0 0 1 4.039 3.473c.161.149.452.138.657-.02.14-.107.28-.202.42-.308.28-.212.667-.127.753.138.367 1.228.754 2.457 1.163 3.674.098.276.496.35.754.128.399-.329.797-.657 1.207-.975.312-.254.786-.085.764.265a71 71 0 0 0 0 6.439c0 .158.108.296.27.349a95 95 0 0 1 6.288 2.446c.334.149.334.583 0 .72l-1.26.54a.378.378 0 0 0-.075.657c1.044.805 2.078 1.62 3.09 2.446.227.18.205.509-.032.636-.118.063-.237.127-.355.18-.183.095-.237.307-.14.497z"/><path fill="currentColor" d="M22.498 110.139c3.425-3.939 7.463-7.339 12.201-9.69a.666.666 0 0 1 .883.286.64.64 0 0 1-.312.869c-4.652 2.086-8.777 5.305-12.223 9.001-.301.339-.861-.127-.549-.477zM107.636 35.153c-1.26.381-2.52.784-3.769 1.197-.291.095-.485-.19-.28-.424a82 82 0 0 0 3.64-4.469c.151-.2.021-.466-.216-.466a59 59 0 0 0-5.826.223c-.226.02-.355-.18-.258-.37.291-.541.56-1.081.84-1.621.065-.138.022-.297-.118-.35a39 39 0 0 0-4.254-1.652c-.248-.084-.216-.413.054-.518.818-.318 1.658-.615 2.487-.911.151-.053.248-.19.226-.34-.021-.158-.053-.306-.075-.465-.032-.19.14-.37.355-.36.647.042 1.303.095 1.95.17.226.02.42-.191.344-.393l-.097-.285c-.075-.202.119-.424.345-.403a45 45 0 0 1 3.123.434c.344.064.527-.391.215-.572a48 48 0 0 0-3.78-1.884c-.107-.053-.183-.149-.183-.265 0-.286-.021-.572-.032-.847 0-.117-.086-.223-.194-.265a55 55 0 0 0-2.003-.73c-.29-.096-.27-.488.032-.562a68 68 0 0 1 2.897-.667c.28-.064.334-.413.076-.55a45 45 0 0 0-2.23-1.176c-.226-.106-.247-.392-.043-.52.237-.148.463-.285.7-.433a.27.27 0 0 0 .108-.36 41 41 0 0 0-.926-1.8c-.129-.234.097-.477.388-.403.721.19 1.432.392 2.143.603.161.053.323 0 .387-.127.13-.222.27-.455.399-.677.118-.202.441-.191.592.01a47 47 0 0 1 1.518 2.108c.173.254.56.222.625-.053.205-.922.398-1.854.56-2.796.054-.297.517-.297.668 0 .344.688.678 1.377.99 2.076a.42.42 0 0 0 .302.232c.334.053.657.117.991.18a.42.42 0 0 1 .301.233 46 46 0 0 1 1.637 4.3c.119.36.635.35.657-.01a48 48 0 0 0 .021-3.315c0-.244.259-.37.496-.233.108.063.215.127.312.201.226.148.496.021.496-.222-.011-.71-.044-1.43-.087-2.14-.01-.232.205-.36.442-.264.194.084.388.17.571.254.172.074.344.032.42-.117.377-.815.732-1.63 1.087-2.456.119-.265.56-.17.679.158a53 53 0 0 1 1.766 5.687c.043.18.215.328.387.339.69.032 1.379.085 2.068.138.248.02.452.317.377.55a70 70 0 0 1-2.315 5.962c-.108.244.086.551.344.551 1.993 0 4.006.064 6.009.212.323.021.485.53.237.72a181 181 0 0 1-3.198 2.489c-.129.095-.162.307-.075.487.064.116.118.233.172.35.118.232 0 .507-.216.529-.98.105-1.97.211-2.939.349-.227.032-.334.318-.205.54l.581 1.017c.151.264-.043.593-.312.53a56 56 0 0 0-4.889-.89.3.3 0 0 0-.301.148 68 68 0 0 1-2.725 4.278c-.161.223-.485.17-.549-.095-.076-.328-.151-.667-.237-.995-.054-.223-.312-.297-.495-.149-.754.657-1.519 1.303-2.283 1.938-.173.138-.42.085-.474-.116a3 3 0 0 1-.086-.286c-.043-.148-.205-.223-.356-.17z"/><path fill="currentColor" d="M114.971 29.573c3.252 2.488 3.306 7.455 1.012 10.6-2.348 3.389-6.935 4.035-10.736 3.283-.991-.17-.679-1.642.301-1.409 3.381.752 7.366.403 9.552-2.52 2.111-2.637 2.197-7.148-.56-9.383-.388-.264.054-.868.431-.582z"/><path fill="currentColor" d="M56.27 121.163c-4.49-.879-6.385-6.354-4.64-10.187 1.625-3.781 5.771-5.74 9.551-5.443 7.646.497 12.783 8.736 10.855 15.747-2.681 10.992-18.34 12.57-25.877 5.485-13.43-12.909-1.056-33.856 10.66-43.524 10.145-8.535 22.41-13.915 34.407-19.252 13.752-6.428 31.488-12.994 38.973-26.782 7.538-14.836-.948-33.601-18.781-34.279-6.354-.487-12.794 1.472-17.263 6.005-9.929 9.986-7.172 24.875 5.18 31.42a.72.72 0 0 1 .28.984c-.194.35-.646.466-1.001.276-2.919-1.62-5.611-3.739-7.732-6.344-11.89-15.185 1.981-35.952 20.643-34.152 24.004 1.07 30.853 29.917 14.689 45.134-22.765 21.984-64 24.06-79.743 53.468-2.778 5.591-4.932 11.881-3.532 17.896 1.26 6.005 6.483 10.982 12.75 11.607 5.977.847 12.987-2.213 14.204-8.408.646-2.86-.022-5.973-1.712-8.303-3.177-4.723-10.995-5.983-13.504-.307-.84 1.906.064 5.136 2.283 5.443 2.466.424 1.766 4.014-.679 3.537z"/>
        <path fill="currentColor" d="M57.193 121.311c2.29 0 4.146-1.825 4.146-4.077s-1.856-4.077-4.146-4.077-4.146 1.826-4.146 4.077 1.856 4.077 4.146 4.077M84.433 66.965c10.812-4.363 23.304-7.19 34.719-3.378 5.384 1.652 12.837 7.593 8.744 13.608-.775 1.048-1.82 1.8-2.907 2.404a.747.747 0 0 1-1.002-.276.72.72 0 0 1 .302-.995c1.787-.996 3.317-2.669 3.177-4.755-.14-1.97-1.454-3.823-3.134-5.157-7.226-5.507-17.338-5.126-25.9-3.347-4.447.964-8.776 2.436-12.954 4.257-1.583.668-2.65-1.673-1.034-2.372zM39.773 88.028c-3.339-.095-5.934 2.934-4.319 5.825 1.626 2.647 5.568 2.89 8.325 1.8 1.992-.773 3.682-2.213 4.953-3.971.894-1.24 2.822.106 1.928 1.345-2.994 4.15-8.852 6.756-13.87 4.468-4.265-1.662-5.019-7.751-.862-9.996.85-.53 4.523-1.705 4.566-.18 0 .391-.323.71-.721.72z"/><path fill="currentColor" d="M91.099 59.268c-2.865-1.96-4.071-6.217-1.96-9.16 4.092-6.376 14.882-4.554 16.142 3.092.603 3.547-1.68 6.872-4.426 8.853a1.177 1.177 0 0 1-1.626-.212 1.144 1.144 0 0 1 .248-1.63c2.229-1.547 4.103-3.972 3.726-6.725-.819-5.91-9.401-7.413-12.654-2.5-1.712 2.373-.807 5.422 1.476 7.149.732.593-.172 1.694-.926 1.122zM20.342 77.895l1.281-4.099a.508.508 0 0 0-.56-.646l-1.033.149a.51.51 0 0 1-.571-.371l-.808-3.124c-.118-.466-.775-.519-.969-.064l-2.714 6.481c-.172.413-.754.413-.937.01l-2.304-5.124c-.172-.392-.732-.403-.926-.022l-.873 1.705a.505.505 0 0 1-.721.201l-2.682-1.61c-.42-.253-.926.18-.732.626l1.228 2.848a.5.5 0 0 1-.312.678l-1.842.604a.497.497 0 0 0-.108.9l4.825 2.986a.498.498 0 0 1-.15.91L2.518 82.64a.502.502 0 0 0-.075.953L5.47 84.83c.237.095.366.36.29.614l-.3.985c-.108.35.193.699.57.646l4.308-.646c.398-.064.71.339.549.699l-1.443 3.198c-.216.466.344.91.764.614l3.694-2.637a.805.805 0 0 1 .99.043l.486.413c.28.233.71.116.818-.233l1.13-3.686a.5.5 0 0 1 .41-.35l3.866-.57a.5.5 0 0 0 .355-.763l-.344-.53a.79.79 0 0 1 .107-.974l3.188-3.22c.366-.37 0-.974-.506-.836l-3.425.932a.508.508 0 0 1-.624-.636zM64.333 90.231l-.496 2.34a.28.28 0 0 0 .345.329l.57-.138c.14-.032.291.043.335.18l.613 1.695c.097.254.463.243.539-.011l1.173-3.738c.076-.233.399-.265.517-.053l1.551 2.732a.29.29 0 0 0 .517-.032l.398-.995c.065-.149.237-.223.388-.149l1.572.752c.248.117.507-.148.377-.38l-.829-1.515a.284.284 0 0 1 .14-.392l.99-.424a.28.28 0 0 0 .012-.508l-2.833-1.419c-.226-.116-.204-.434.033-.508l3.747-1.292c.259-.085.248-.456 0-.53l-1.744-.54a.277.277 0 0 1-.194-.328l.118-.561a.28.28 0 0 0-.344-.329l-2.359.572c-.215.053-.409-.148-.334-.36l.636-1.842c.097-.276-.237-.488-.452-.297l-1.917 1.652a.444.444 0 0 1-.55.032l-.29-.201a.286.286 0 0 0-.442.17l-.441 2.096a.27.27 0 0 1-.216.212l-2.121.508a.283.283 0 0 0-.162.445l.216.275a.44.44 0 0 1 0 .54l-1.605 1.949c-.183.222.054.54.323.434l1.853-.689c.215-.074.43.106.376.318zM130.683 54.12l-1.217-1.95a.274.274 0 0 0-.463 0l-.301.467a.277.277 0 0 1-.356.095l-1.551-.783c-.236-.117-.484.127-.366.36l1.68 3.357c.108.211-.097.444-.323.37l-2.897-.9c-.215-.064-.42.148-.333.35l.387.942a.277.277 0 0 1-.172.36l-1.605.487a.265.265 0 0 0 0 .508l1.594.52a.265.265 0 0 1 .162.36l-.41.942a.268.268 0 0 0 .324.36l2.918-.837c.226-.063.431.17.323.382l-1.745 3.314c-.118.233.13.477.367.36l1.572-.752a.275.275 0 0 1 .355.096l.291.466c.108.17.355.17.463 0l1.26-1.917a.272.272 0 0 1 .474.032l.786 1.694c.118.244.495.19.517-.085l.237-2.382a.42.42 0 0 1 .366-.371l.334-.042c.194-.032.301-.244.194-.403l-1.099-1.747a.27.27 0 0 1 0-.286l1.131-1.726c.108-.159 0-.381-.183-.413l-.334-.053a.42.42 0 0 1-.355-.381l-.183-2.383c-.022-.275-.399-.339-.517-.095l-.83 1.673a.271.271 0 0 1-.473.021zM54.568 2.823l-2.003.53a.232.232 0 0 0-.119.38l.323.371a.24.24 0 0 1 0 .318l-1.076 1.112c-.162.17-.011.434.215.402l3.338-.56c.216-.033.366.19.237.37l-1.518 2.203c-.119.169.021.391.226.37l.915-.085c.14-.01.259.096.27.233l.021 1.472c0 .233.302.329.442.138l.85-1.207a.24.24 0 0 1 .356-.043l.71.583c.162.127.399.021.399-.18V6.572c0-.212.269-.318.42-.17l2.444 2.309c.173.159.442.01.41-.212l-.259-1.514a.234.234 0 0 1 .172-.265l.485-.127a.232.232 0 0 0 .118-.381l-1.356-1.546c-.13-.138-.044-.36.15-.392l1.67-.233c.247-.032.29-.37.053-.455l-2.013-.795a.38.38 0 0 1-.237-.402l.043-.297a.24.24 0 0 0-.302-.264l-1.798.476a.25.25 0 0 1-.248-.074L56.7.843c-.118-.127-.323-.106-.398.053l-.13.264a.366.366 0 0 1-.42.202L53.631.917c-.237-.053-.398.243-.215.413l1.249 1.122c.14.128.086.36-.097.403zM123.282 125.474l-.743 2.51a.31.31 0 0 0 .345.391l.635-.106a.324.324 0 0 1 .356.223l.517 1.906c.075.286.484.307.592.032l1.604-3.982c.097-.254.463-.265.571-.011l1.454 3.114c.108.233.452.243.56 0l.517-1.049a.313.313 0 0 1 .441-.127l1.659.964c.258.148.57-.116.441-.392l-.775-1.726c-.076-.159.011-.349.183-.413l1.12-.381a.308.308 0 0 0 .065-.551l-2.973-1.79c-.237-.137-.183-.487.086-.561l4.211-1.101c.291-.074.312-.477.032-.583l-1.863-.73a.31.31 0 0 1-.183-.371l.183-.604c.065-.211-.129-.423-.355-.391l-2.628.434a.305.305 0 0 1-.333-.424l.85-1.959c.13-.286-.215-.551-.474-.371l-2.239 1.642a.48.48 0 0 1-.603-.021l-.302-.244c-.172-.137-.442-.063-.495.148l-.668 2.256a.31.31 0 0 1-.248.222l-2.358.382a.304.304 0 0 0-.215.466l.215.317a.47.47 0 0 1-.054.593l-1.917 1.991c-.215.223 0 .593.312.509l2.079-.604a.312.312 0 0 1 .388.381zM14.183 6.847l.528-2.976a.358.358 0 0 0-.452-.402l-.711.201a.35.35 0 0 1-.43-.212l-.84-2.117c-.13-.318-.593-.297-.69.031l-1.324 4.776c-.087.297-.496.36-.657.085l-2.079-3.4c-.161-.253-.549-.222-.646.064L6.42 4.168a.36.36 0 0 1-.485.201L3.91 3.48c-.323-.137-.635.202-.463.498l1.109 1.885a.348.348 0 0 1-.161.498l-1.239.583c-.28.127-.27.518 0 .646l3.65 1.683c.291.138.27.54-.02.657l-4.696 1.79a.357.357 0 0 0 .032.677l2.23.604c.183.053.29.222.258.402l-.13.72a.358.358 0 0 0 .453.403l2.961-.826c.27-.074.528.18.442.445l-.722 2.361c-.107.35.323.614.593.36l2.358-2.16a.56.56 0 0 1 .7-.053l.377.243a.37.37 0 0 0 .56-.232l.474-2.68a.37.37 0 0 1 .258-.286l2.66-.73a.36.36 0 0 0 .183-.572l-.29-.34a.55.55 0 0 1-.011-.687l1.949-2.531c.226-.286-.086-.678-.43-.54l-2.316.953a.365.365 0 0 1-.496-.392zM91.066 74.622c.043.36.42.635.786.55a3.8 3.8 0 0 0 1.335-.593c.205.678.873 2.13 1.745 1.98.872-.147 1.034-1.715 1.001-2.435.485.138.98.19 1.454.138.366-.043.646-.413.56-.773-.377-1.663-2.261-3.124-4.017-2.838-1.755.286-3.058 2.276-2.864 3.96zM12.173 25.75c-.14-.34-.581-.488-.915-.318-.42.233-.797.55-1.11.932-.387-.593-1.442-1.8-2.24-1.43-.796.37-.506 1.938-.269 2.616-.506 0-.99.084-1.432.264-.344.138-.495.572-.323.9.83 1.494 3.058 2.383 4.663 1.632s2.294-3.03 1.626-4.596M85.12 62.538c-.237-.391-.807-.508-1.184-.233-.485.35-.894.816-1.217 1.345-.582-.678-2.1-1.99-3.026-1.398s-.29 2.489.118 3.283a4.6 4.6 0 0 0-1.733.572.81.81 0 0 0-.237 1.165c1.292 1.705 4.21 2.436 6.063 1.239 1.906-1.24 2.315-4.13 1.227-5.962zM77.14 9.208c.226.37.765.466 1.12.212.453-.339.83-.773 1.12-1.281.56.624 1.992 1.853 2.865 1.27.872-.582.247-2.34-.151-3.081a4.6 4.6 0 0 0 1.626-.561c.377-.223.474-.752.215-1.102-1.238-1.588-3.984-2.245-5.707-1.09-1.723 1.154-2.122 3.907-1.077 5.623zM125.825 40.83c-.204-.297-.667-.35-.947-.117a3.5 3.5 0 0 0-.873 1.133c-.495-.497-1.776-1.44-2.466-.91-.689.53-.075 1.97.302 2.573a3.6 3.6 0 0 0-1.325.55c-.301.202-.355.657-.118.933 1.12 1.26 3.457 1.652 4.835.593 1.422-1.091 1.551-3.39.582-4.766zM50.992 98.12a.784.784 0 0 0 1.11-.18c.3-.466.506-.996.602-1.557.733.403 2.488 1.049 3.091.233.603-.815-.57-2.245-1.195-2.806a4.1 4.1 0 0 0 1.313-1.06c.27-.328.184-.857-.183-1.09-1.69-1.059-4.458-.752-5.664.89-1.238 1.694-.625 4.33.937 5.57zM127.197 86.154a.786.786 0 0 0-.172 1.144c.377.445.84.815 1.389 1.09-.635.593-1.852 2.108-1.217 2.955.636.847 2.466.148 3.231-.275.108.593.334 1.143.657 1.62.248.37.808.455 1.163.17 1.615-1.324 2.186-4.141.905-5.836-1.325-1.758-4.19-1.99-5.945-.857z"/>
    </symbol>
    <symbol id="icon-unique-3" xmlns="http://www.w3.org/2000/svg" fill="none" viewBox="0 0 135 133"><g clip-path="url(#a)">
        <path fill="currentColor" d="M64.047 52.082a92.1 92.1 0 0 1 15.934 25.844c.428 1.048-1.005 1.68-1.562.706-6.057-10.466-12.938-19.648-19.67-27.064-.588-.653-1.572-.064-1.22.706C61.5 63.072 73.797 77.391 89.57 112.845c.235.577 1.06.47 1.113-.161 1.99-35.411-16.256-54.91-25.405-61.865-.953-.728-1.99.385-1.22 1.263zM98.794 51.632c-1.883-.16-2.9.93-1.776 1.905 6.41 5.532 17.775 14.372 34.18 33.12.578.728 1.509.46 1.498-.224-.363-20.386-21.253-33.731-33.902-34.801M124.51 2.673c-6.196-.985-15.774-.47-23.061 3.703-.675.385-.429 1.402.353 1.434 12.371.513 19.755-2.151 22.922-3.692.674-.332.525-1.327-.214-1.445M131.755 41.99c-3.831 3.863-6.966 10.916-6.774 16.48.032.9 1.124 1.37 1.809.782 7.18-6.143 7.287-13.27 6.838-16.62-.118-.899-1.231-1.295-1.873-.642M119.332 20.395c-3.521 2.022-12.103 8.796-13.762 27.524-.064.685.77 1.102 1.273.631 7.877-7.437 12.328-22.44 13.613-27.32.171-.654-.535-1.167-1.124-.835M103.309 71.483c2.836 6.796 4.998 15.175 4.987 24.881 0 .953-1.573 1.06-1.723.14-1.648-9.964-4.559-19.146-7.983-26.872-.3-.674-1.434-.482-1.402.225-.407 9.663 5.575 24.399 6.753 56.878 0 .524.802.663 1.091.171 15.282-27.599 5.747-48.07-.107-56.097-.61-.835-1.99-.235-1.605.674z"/><path fill="currentColor" d="M53.229 28.913c9.096 3.135 18.588 8.668 25.844 18 .706.92-.524 1.872-1.327 1.07-8.818-8.668-19.712-14.404-30.403-17.626-.93-.278-1.712.503-.974.963 8.251 7.288 31.163 13.153 46.862 50.736.214.632.91.375.942-.364.941-41.275-27.471-52.223-40.216-54.17-1.349-.225-1.937.973-.717 1.39z"/><path fill="currentColor" d="M57.133 44.077c-21.328-8.23-44.218-19.584-54.61-41.222l2.141-.674c2.665 15.624 10.798 29.75 18.91 43.212 8.261 13.655 17.593 26.732 24.41 41.244.363.76-.825 1.573-1.328.62C32.96 58.588 8.752 34.51 2.428 2.555c-.224-1.263 1.606-1.862 2.14-.674 2.409 5.126 5.64 9.867 9.472 14.072 11.718 12.778 27.738 20.333 43.63 26.754.856.343.374 1.712-.536 1.36z"/><path stroke="currentColor" stroke-linecap="round" stroke-linejoin="round" stroke-width="1.466" d="M118.398 102.785c4.966-19.637-7.523-33.581-21.456-42.453"/><path fill="currentColor" d="M43.79 43.285c2.76 7.234 5.832 15.892 9.064 26.037.321.995-1.145 1.552-1.616.61-5.008-10.145-9-20.033-12.071-28.605-.268-.75-1.402-.557-1.391.235.096 10.006 3.991 30.189 27.181 59.286.364.46 1.135.129 1.028-.438-5.736-31.334-14.533-48.895-20.611-57.906-.589-.867-1.959-.193-1.595.781zM25.917 62.216c-.61-.696-1.851.032-1.434.845 3.125 6.057 6.635 13.313 10.412 21.874.375.834-.963 1.477-1.466.695-5.447-8.368-9.92-16.619-13.43-23.81-.31-.632-1.36-.343-1.295.353.824 8.743 5.95 26.015 29.868 49.13.374.364 1.07 0 .931-.492-7.673-26.84-17.219-41.318-23.586-48.596M14.18 16.692c9.996-1.145 20.12 1.445 28.755 6.432 1.241.695 2.397 1.53 3.596 2.28a.727.727 0 0 1 .225 1.005.73.73 0 0 1-1.06.193c-9.021-6.122-20.311-9.503-31.205-8.155-1.188.225-1.53-1.573-.31-1.765zM14.96 31.31c-.812 7.93.333 16.448 4.645 23.275.493.803-.738 1.584-1.252.77-2.3-3.552-3.81-7.565-4.57-11.717-.77-4.163-.994-8.326-.566-12.564a.877.877 0 0 1 .963-.781.877.877 0 0 1 .77 1.017zM120.014 31.106c6.624-8.293 11.632-18.181 13.537-28.669l1.701.75c-1.915 2.471-4.601 4.216-7.384 5.34-8.283 3.22-17.325 3.242-25.929 4.612-11.28 1.509-22.944 5.04-30.542 13.944-.589.695-1.755-.204-1.103-.963 3.874-4.517 8.904-7.973 14.351-10.253 5.469-2.29 11.269-3.531 17.048-4.398 9.856-1.862 25.437-1.188 32.04-9.45a.96.96 0 0 1 1.38-.17.96.96 0 0 1 .321.92c-1.048 5.404-2.889 10.637-5.372 15.538-2.472 4.912-5.404 9.525-8.946 13.763-.632.727-1.745-.225-1.102-.964M35.112 132.899c-14.34-7.951-23.704-22.741-28.242-38.194l1.713.3c-4.345 7.202-6.186 16.223-4.377 24.506.61 2.772 1.616 5.447 2.932 7.973a.73.73 0 0 1-.31.995.737.737 0 0 1-.985-.299c-1.413-2.612-2.504-5.415-3.178-8.326-1.36-5.822-.963-11.975.749-17.668.877-2.858 1.99-5.587 3.585-8.219.396-.696 1.52-.535 1.69.235 2.066 7.566 5.533 14.929 9.996 21.403 2.247 3.243 4.794 6.293 7.662 9 2.847 2.729 6.046 5.073 9.47 7.01.825.449.15 1.755-.706 1.284"/><path stroke="currentColor" stroke-linecap="round" stroke-linejoin="round" stroke-width="1.466" d="M7.787 94.47c4.045 10.477 10.884 12.671 10.884 12.671"/><path fill="currentColor" d="M45.48 16.927C56.492 4.171 75.658.008 91.143 6.525c1.081.46.396 2.13-.706 1.659-14.757-6.335-33.228-2.45-43.844 9.717-.62.717-1.744-.246-1.102-.974z"/><path stroke="currentColor" stroke-linecap="round" stroke-linejoin="round" stroke-width="1.466" d="M24.012 11.994s18.02-12.83 39.317-5.94"/><path fill="currentColor" d="M108.587 131.711c4.623-5.212 15.453-19.744 16.598-42.453.032-.727.91-1.07 1.445-.567 10.22 9.76 7.362 36.653-17.133 44.368-.814.257-1.477-.706-.91-1.348M123.985 131.454c2.119-1.733 5.586-5.094 7.759-9.867.289-.631 1.187-.684 1.508-.075 2.366 4.452.568 11.462-8.732 11.43-.792 0-1.145-.996-.535-1.499zM75.797 131.208c2.055-2.258 5.373-6.507 7.31-12.211.267-.77 1.305-.909 1.755-.214 3.092 4.741 1.027 12.639-8.209 14.03-.899.139-1.466-.942-.856-1.605M20.504 130.127c-2.27-2.622-6.068-7.63-8.883-14.479-.438-1.059-1.99-1.006-2.333.086-1.862 5.843 1.306 14.714 10.167 16.255 1.038.182 1.734-1.059 1.049-1.851zM57.027 130.309c-2.826-3.007-7.93-8.721-11.355-14.115-.642-1.006-2.236-.567-2.236.621-.011 6.495 4.323 14.265 12.531 15.485 1.124.171 1.83-1.167 1.06-1.991M90.094 130.577c1.402-2.975 3.607-8.412 4.912-15.507.15-.802 1.188-1.091 1.702-.46 3.178 3.906 3.339 12.264-5.222 17.197-.835.482-1.809-.363-1.402-1.23zM67.802 128.19c1.53-5.918 4.324-19.509 2.986-36.139-.086-1.06 1.263-1.573 1.926-.727 8.583 10.958 6.85 28.626-3.135 37.915-.781.728-2.044 0-1.777-1.038zM41.318 126.221c-3.532-5.832-11.483-19.562-16.405-32.618-.396-1.06-1.959-.941-2.173.172-2.525 13.419 5.308 29.429 16.983 34.287 1.135.471 2.226-.792 1.595-1.841M51.279 95.648c.47 9.567 3.317 19.712 8.882 30.039.482.888 1.83.706 2.044-.279 2.611-11.878-3.168-23.318-8.69-30.563-.738-.974-2.29-.407-2.236.813zM16.576 92.308c-1.787-5.907-5.447-20.579-5.03-40.89.022-.856-1.027-1.284-1.648-.685-13.023 12.403-6.067 33.902 5.02 42.677.802.632 1.958-.117 1.658-1.091zM4.889 46.848c.075-4.002.428-13.034 2.194-20.525.182-.76-.685-1.306-1.327-.846C.79 29.073-2.088 38.105 3.658 47.191c.353.545 1.22.3 1.231-.343M40.963 16.734a43 43 0 0 1 7.298-9.289c.514-.492.118-1.348-.588-1.284-8.123.706-11.975 6.903-8.176 10.744a.914.914 0 0 0 1.455-.181zM58.941 21.55c4.067-2.173 13.548-6.742 26.968-10.092.813-.203.877-1.348.064-1.605-9.118-2.825-22.034.321-28.07 10.627-.396.663.353 1.434 1.038 1.07M131.402 24.311c-2.001 4.077-6.956 12.81-15.924 20.504-.557.482-.225 1.402.514 1.413 8.336.064 18.203-10.145 16.951-21.628-.086-.803-1.177-1.017-1.541-.278zM86.197 34.168c2.205-3.746 7.138-11.333 13.548-16.427.675-.535.204-1.595-.652-1.488-8.337.985-15.24 6.999-14.49 17.55.053.825 1.166 1.082 1.594.364M95.456 44.954c2.728-5.083 9.053-15.356 21.467-28.498.717-.76.096-2.012-.953-1.883-12.221 1.53-23.447 13.366-22.644 29.9.053 1.145 1.594 1.487 2.13.481"/><path stroke="currentColor" stroke-linecap="round" stroke-linejoin="round" stroke-width="1.466" d="M122.08 16.382s6.881 1.027 9.685-4.28"/></g><defs><clipPath id="a">
        <path fill="#fff" d="M0 .76h135v132H0z"/></clipPath></defs>
    </symbol>
    <symbol id="icon-unique-decor-1" viewBox="0 0 366 366" fill="none" xmlns="http://www.w3.org/2000/svg">
        <g opacity="0.5">
            <path d="M0.511025 0.354492C0.511025 0.354492 48.709 171.378 181.254 239.465C313.396 307.553 365.209 365.454 365.209 365.454C365.209 365.454 321.429 170.842 170.007 85.0619C74.4146 30.9135 0.109375 0.890628 0.109375 0.890628" fill="#1F3834"/>
        </g>
    </symbol>
    <symbol id="icon-unique-decor-2" viewBox="0 0 695 984" fill="none" xmlns="http://www.w3.org/2000/svg">
        <path d="M104.94 676.271C104.94 676.271 145.564 820.42 257.281 877.808C368.659 935.197 412.33 984 412.33 984C412.33 984 375.429 819.968 247.802 747.668C167.23 702.028 104.602 676.723 104.602 676.723" fill="#1F3834"/>
        <path fill-rule="evenodd" clip-rule="evenodd" d="M694.516 0.622496C665.93 0.225909 640.528 0 619.172 0C434.925 0 280.144 32.1334 177.182 108.62C61.0118 195.516 -1.98446 353.014 0.0476736 480.643C1.06374 546.267 16.9822 615.06 71.1725 675.253C61.0118 639.499 53.222 610.534 52.5446 569.349C51.5285 510.966 61.3505 456.656 78.9624 409.587C116.896 295.084 245.259 182.843 474.213 176.055C534.72 174.32 622.504 178.172 694.516 181.695V0.622496Z" fill="#1F3834"/>
    </symbol>
    <symbol id="icon-decor-2" viewBox="0 0 824 802" fill="none" xmlns="http://www.w3.org/2000/svg">
        <path fill-rule="evenodd" clip-rule="evenodd" d="M824 1.17691C790.084 0.706462 759.946 0.438477 734.609 0.438477C516.011 0.438477 332.373 38.5558 210.216 129.286C72.3867 232.363 -2.35444 419.192 0.0565617 570.587C1.26206 648.432 20.1483 730.036 84.4417 801.438C72.3867 759.026 63.1445 724.667 62.3408 675.812C61.1353 606.557 72.7885 542.133 93.6838 486.3C138.689 350.473 290.984 217.331 562.624 209.278C634.411 207.22 738.563 211.79 824 215.97V1.17691Z" fill="#1F3834"/>
    </symbol>
    <symbol id="icon-arrow-next" viewBox="0 0 182 27" fill="none" xmlns="http://www.w3.org/2000/svg">
        <path d="M168.502 0.702148L180.502 13.2021L168.502 25.7021" stroke="white"/>
        <line x1="180.502" y1="13.2021" x2="0.502258" y2="13.2022" stroke="white"/>
    </symbol>
    <symbol id="icon-whatsapp" viewBox="0 0 24 21" fill="none" xmlns="http://www.w3.org/2000/svg">
        <path d="M11.967 0.797852C6.45928 0.797852 1.99774 5.2699 1.99774 10.7979C1.99774 12.9718 2.70543 15.0215 3.90543 16.6674L2.6439 20.3941L6.49005 19.1519C8.05928 20.2078 9.96697 20.7979 11.9977 20.7979C17.5054 20.7979 21.9977 16.3258 21.9977 10.7979C21.967 5.2699 17.4747 0.797852 11.967 0.797852ZM17.8131 14.9283C17.567 15.6115 16.367 16.2637 15.8439 16.3258C15.3208 16.3879 15.3208 16.7606 12.3362 15.6115C9.38236 14.4314 7.50543 11.419 7.35159 11.2016C7.19774 11.0152 6.15159 9.61773 6.15159 8.18916C6.15159 6.76059 6.89005 6.0463 7.16697 5.7668C7.4439 5.48729 7.75159 5.39413 7.9362 5.39413C8.12082 5.39413 8.3362 5.42518 8.49005 5.42518C8.67467 5.42518 8.89005 5.33201 9.1362 5.92208C9.38236 6.51214 9.96697 7.94071 10.0285 8.09599C10.0901 8.25127 10.1516 8.40655 10.0593 8.59288C9.96697 8.77922 9.90543 8.90344 9.78236 9.08978C9.62851 9.24506 9.47467 9.46245 9.35159 9.58667C9.19774 9.74195 9.0439 9.89723 9.22851 10.1767C9.41313 10.4562 9.99774 11.419 10.8593 12.1954C11.967 13.1892 12.9208 13.4997 13.1977 13.655C13.4747 13.8103 13.6593 13.7792 13.8131 13.5929C13.9977 13.4065 14.5516 12.7544 14.7362 12.4438C14.9208 12.1643 15.1362 12.1954 15.3824 12.2885C15.6593 12.3817 17.0747 13.096 17.3824 13.2513C17.6593 13.4065 17.8747 13.4687 17.9362 13.5929C18.0285 13.655 18.0285 14.2451 17.8131 14.9283Z" fill="currentColor"/>
    </symbol>
    <symbol id="icon-vk" viewBox="0 0 24 20" fill="none" xmlns="http://www.w3.org/2000/svg">
        <path d="M23.7673 15.9246C23.7055 15.8142 23.3231 14.9277 21.4829 13.1058C19.5565 11.1979 19.8153 11.5077 22.1356 8.20882C23.5488 6.19974 24.1137 4.97281 23.9369 4.44831C23.7687 3.94834 22.7293 4.08023 22.7293 4.08023L19.2733 4.1017C19.2733 4.1017 19.0174 4.06489 18.8262 4.18605C18.6408 4.30568 18.5215 4.58173 18.5215 4.58173C18.5215 4.58173 17.9737 6.13686 17.2434 7.45886C15.7038 10.2486 15.087 10.3958 14.8354 10.2225C14.2503 9.81915 14.397 8.5999 14.397 7.73492C14.397 5.03109 14.7808 3.90386 13.648 3.61247C13.2713 3.51585 12.9953 3.45143 12.0335 3.4407C10.8001 3.42689 9.75494 3.4453 9.16409 3.75356C8.77018 3.95907 8.46685 4.41763 8.6523 4.44371C8.88088 4.47591 9.39842 4.59247 9.673 4.99122C10.0281 5.50499 10.0152 6.66136 10.0152 6.66136C10.0152 6.66136 10.2193 9.84369 9.5393 10.2394C9.07208 10.5108 8.43235 9.95718 7.05943 7.42512C6.35644 6.12919 5.82453 4.69522 5.82453 4.69522C5.82453 4.69522 5.72246 4.42837 5.53988 4.28574C5.31849 4.11244 5.00797 4.05723 5.00797 4.05723L1.7216 4.0787C1.7216 4.0787 1.2285 4.09403 1.04737 4.32255C0.886355 4.52652 1.03443 4.94674 1.03443 4.94674C1.03443 4.94674 3.60774 11.3681 6.52033 14.6057C9.19284 17.5733 12.2262 17.3785 12.2262 17.3785H13.6005C13.6005 17.3785 14.016 17.3294 14.2273 17.0856C14.4228 16.8617 14.4157 16.4415 14.4157 16.4415C14.4157 16.4415 14.3883 14.4738 15.2452 14.1839C16.089 13.8987 17.173 16.0857 18.3216 16.9276C19.19 17.5641 19.8498 17.4245 19.8498 17.4245L22.922 17.3785C22.922 17.3785 24.5292 17.2727 23.7673 15.9246Z" fill="currentColor"/>
    </symbol>
    <symbol id="icon-youtube" viewBox="0 0 24 20" fill="none" xmlns="http://www.w3.org/2000/svg">
        <path fill-rule="evenodd" clip-rule="evenodd" d="M9.19968 5.47754C10.149 6.15473 11.1303 6.89796 12.0726 7.61326C13.0243 8.33655 13.9899 9.03235 14.914 9.73215C13.2573 10.8468 11.5936 11.9215 9.91441 13.0202C9.67863 13.1735 9.45452 13.3601 9.19968 13.4775V5.47754ZM1.58715 6.63033V13.3873C1.58715 14.1822 1.54918 14.9335 1.72916 15.4897C1.90831 16.042 2.23195 16.4866 2.6138 16.809C3.00967 17.1419 3.46912 17.3849 4.1453 17.4429C4.78184 17.4966 5.52736 17.4599 6.26091 17.4599H16.9178C17.6345 17.4599 18.3602 17.5092 19.0496 17.4429C20.269 17.3255 21.1086 16.515 21.4335 15.4574C21.6098 14.8842 21.5755 14.1329 21.5755 13.3546V6.59674C21.5755 5.79575 21.6263 5.10556 21.4335 4.49391C21.2618 3.94901 20.9617 3.50095 20.5658 3.15935C20.1777 2.82473 19.7286 2.56777 19.0496 2.50843C18.3796 2.45085 17.6308 2.49142 16.9339 2.49142H6.2766C5.57236 2.49142 4.75996 2.45216 4.11392 2.50843C2.91432 2.61314 2.01853 3.46038 1.71388 4.51092C1.54092 5.10556 1.58715 5.86773 1.58715 6.63033V6.63033Z" fill="currentColor"/>
    </symbol>
    <symbol id="icon-tg" viewBox="0 0 24 20" fill="none" xmlns="http://www.w3.org/2000/svg">
        <g>
            <path fill-rule="evenodd" clip-rule="evenodd" d="M21.5583 2.6857C21.4533 3.16105 21.3439 3.63544 21.2439 4.1119C20.5976 7.19308 19.9534 10.2747 19.3082 13.3562C19.0304 14.6833 18.7545 16.0108 18.4702 17.3365C18.4332 17.5088 18.3674 17.6798 18.2861 17.8359C18.0688 18.2529 17.7109 18.4102 17.2703 18.2694C17.0695 18.2053 16.8671 18.1114 16.6974 17.986C15.2601 16.9235 13.8301 15.8506 12.3978 14.781C12.346 14.7422 12.2928 14.7053 12.231 14.6608C12.1834 14.7022 12.1385 14.7377 12.0976 14.7776C11.3581 15.4963 10.6185 16.215 9.88035 16.9351C9.66041 17.1496 9.41013 17.2788 9.08119 17.2594C9.10841 16.8445 9.1334 16.443 9.16141 16.0417C9.22007 15.2014 9.28025 14.3612 9.34001 13.521C9.34943 13.3887 9.38327 13.2533 9.36625 13.1248C9.30191 12.6403 9.5689 12.3594 9.89503 12.0629C12.5465 9.65184 15.1852 7.22612 17.8277 4.80471C17.8664 4.76923 17.9166 4.73932 17.9395 4.69502C17.9813 4.61376 18.0068 4.52367 18.0391 4.43725C17.9499 4.4117 17.8512 4.34827 17.7734 4.36846C17.6131 4.40994 17.4523 4.47719 17.3118 4.56669C13.8675 6.76092 10.4258 8.95924 6.98439 11.1582C6.88772 11.22 6.80474 11.2541 6.68064 11.2142C5.22064 10.744 3.75736 10.2845 2.29746 9.8139C2.12083 9.75696 1.94504 9.67186 1.79392 9.56345C1.50986 9.35969 1.47565 9.06138 1.72979 8.8205C1.91594 8.64404 2.14134 8.48745 2.37658 8.3921C3.6066 7.89349 4.84501 7.4165 6.08107 6.93339C10.7767 5.0984 15.4724 3.26335 20.1695 1.43202C20.3189 1.37375 20.4818 1.3354 20.6411 1.32292C21.0637 1.28988 21.3771 1.52312 21.5062 1.94206C21.5214 1.9914 21.5409 2.03947 21.5583 2.08813V2.6857Z" fill="currentColor"/>
        </g>
    </symbol>
    <symbol id="icon-dzen" viewBox="0 0 24 20" fill="none" xmlns="http://www.w3.org/2000/svg">
        <path d="M13.6744 11.4591C12.3387 12.8373 12.2416 14.5555 12.1262 18.3198C15.6355 18.3198 18.058 18.3077 19.3087 17.0934C20.523 15.8427 20.5352 13.3048 20.5352 9.9109C16.7709 10.0323 15.0527 10.1234 13.6744 11.4591M3.53516 9.9109C3.53516 13.3048 3.5473 15.8427 4.76158 17.0934C6.0123 18.3077 8.4348 18.3198 11.9441 18.3198C11.8227 14.5555 11.7316 12.8373 10.3959 11.4591C9.01766 10.1234 7.29944 10.0263 3.53516 9.9109M11.9441 1.31982C8.44087 1.31982 6.0123 1.33197 4.76158 2.54625C3.5473 3.79697 3.53516 6.33482 3.53516 9.72875C7.29944 9.60732 9.01766 9.51625 10.3959 8.18054C11.7316 6.80232 11.8287 5.08411 11.9441 1.31982M13.6744 8.18054C12.3387 6.80232 12.2416 5.08411 12.1262 1.31982C15.6355 1.31982 18.058 1.33197 19.3087 2.54625C20.523 3.79697 20.5352 6.33482 20.5352 9.72875C16.7709 9.60732 15.0527 9.51625 13.6744 8.18054" fill="currentColor"/>
    </symbol>
    <symbol id="icon-whitemark" viewBox="0 0 103 16" fill="none" xmlns="http://www.w3.org/2000/svg">
        <path opacity="0.2" fill-rule="evenodd" clip-rule="evenodd" d="M90.8256 4.49587L90.2998 6.61157C89.9712 6.54545 89.577 6.47934 89.1826 6.47934C88.7226 6.47934 88.2625 6.54545 87.9339 6.67768V16L85.4365 15.4711V5.15702C86.488 4.76033 87.9339 4.42975 89.5112 4.42975C90.0369 4.42975 90.497 4.49587 90.8256 4.49587ZM81.4933 8.06612V14.281C80.9018 14.6116 79.3903 15.0083 77.8787 15.0083C74.8556 15.0083 73.344 13.8182 73.344 11.7686C73.344 8.99174 76.17 8.46281 79.1931 8.26446V7.73554C79.1931 6.67769 78.4701 6.28099 77.2871 6.28099C76.3671 6.28099 75.1841 6.61157 74.4612 6.87603L73.804 5.15702C74.6584 4.82645 76.0385 4.42975 77.4844 4.42975C80.0475 4.42975 81.4933 5.42149 81.4933 8.06612ZM52.8392 8.99174C52.9049 9.2562 52.9049 9.58678 52.8392 9.85124L46.3986 10.7107C46.5958 12.1653 47.713 12.9587 49.1589 12.9587C50.1447 12.9587 51.2619 12.6942 51.9191 12.2975L52.642 14.2149C51.7876 14.6777 50.4076 14.9422 48.9618 14.9422C45.6757 14.9422 43.9012 12.7603 43.9012 9.65289C43.9012 6.54545 45.61 4.36364 48.5674 4.36364C51.3277 4.36364 52.8392 6.21488 52.8392 8.99174ZM39.3666 4.6281H41.2724V6.54546H39.3666V11.5702C39.3666 12.3636 39.8923 12.6942 40.5495 12.6942C40.8124 12.6942 41.0752 12.6281 41.2724 12.562V14.6777C40.9438 14.7438 40.2866 14.876 39.6951 14.876C37.7892 14.876 36.8692 13.8182 36.8692 11.7025V6.54546H35.6204V4.6281H36.8692V2.38017L39.3666 1.65289V4.6281ZM20.3076 4.89256C20.8991 4.6281 21.6877 4.42975 22.4107 4.42975C24.7766 4.42975 26.091 5.61983 26.091 7.86777V14.7438H23.5936V8.13223C23.5936 7.00827 22.9364 6.47934 21.7534 6.47934C21.2277 6.47934 20.7019 6.61157 20.3076 6.87603V14.8099H17.8102V0H20.3076V4.89256ZM70.1237 7.80165V14.8099H67.6263V8C67.6263 7.00826 66.9691 6.41322 65.9833 6.41322C65.3261 6.41322 64.866 6.61157 64.4717 6.94215V14.7438H61.9087V7.86777C61.9087 6.94215 61.2514 6.41322 60.1341 6.41322C59.5427 6.41322 59.0827 6.47934 58.7541 6.67768V14.7438H56.2567V5.15702C57.3082 4.76033 58.6226 4.42975 60.0027 4.42975C61.6457 4.42975 62.6316 4.95868 63.2231 5.4876C63.8803 5.02479 65.0632 4.42975 66.5748 4.42975C68.8092 4.42975 70.1237 5.75206 70.1237 7.80165ZM3.94323 10.843C4.1404 11.5702 4.20612 12.4959 4.20612 12.4959H4.27178C4.27178 12.4959 4.40328 11.5702 4.60044 10.843L6.24339 4.6281H8.54367L10.1866 10.843C10.3838 11.5702 10.5153 12.4959 10.5153 12.4959C10.5153 12.4959 10.581 11.5702 10.7782 10.843L12.224 4.6281H14.7871L11.8297 14.7438H9.20088L7.68925 8.99174C7.49208 8.33058 7.42636 7.47107 7.42636 7.47107H7.3607C7.3607 7.47107 7.2292 8.33058 7.03204 8.99174L5.52053 14.7438H2.89171L0 4.6281H2.56304L3.94323 10.843ZM32.4002 14.7438H29.9028V4.6281H32.4002V14.7438ZM96.2805 9.05785H96.3461L99.6321 4.6281H102.59L98.9749 9.38843L102.787 14.7438H99.9608L96.3461 9.65289H96.2805V14.7438H93.7831V0H96.2805V9.05785ZM75.7756 11.6364C75.7756 12.562 76.4985 13.157 77.8129 13.157C78.3387 13.157 78.9959 13.0909 79.2588 12.9587V9.85124C77.4186 9.91735 75.7756 10.1157 75.7756 11.6364ZM46.2672 9.12397L50.4733 8.52893C50.4733 7.00827 49.6847 6.28099 48.5674 6.28099C47.253 6.28099 46.3329 7.27273 46.2672 9.12397Z" fill="white"/>
    </symbol>
    <symbol id="icon-sminex" width="95" height="22" viewBox="0 0 95 22" fill="none" xmlns="http://www.w3.org/2000/svg">
        <path d="M80.1257 21.6996L86.0428 14.5839L80.3428 6.409H83.4371C84.9571 6.409 84.74 7.03365 87.3728 10.8088L88.2685 12.1124L91.8514 6.59911C91.96 6.43615 92.15 6.38184 92.3128 6.38184H94.1586L88.7843 12.8457L95 21.6996H92.0957C90.1685 21.7267 90.5214 20.9391 87.97 17.3269L86.5585 15.3172L82.4599 21.4551C82.3514 21.6181 82.1885 21.6724 81.9714 21.6724H80.1257V21.6996Z" fill="white"/>
        <path d="M73.9091 21.9998C71.8191 21.9998 69.6476 21.4023 68.2905 19.7184C67.0148 18.1432 66.5533 16.1878 66.499 14.2052C66.4719 11.7337 67.0962 9.75107 68.399 8.25732C69.7019 6.76357 71.4933 6.03027 73.7733 6.03027C74.8591 6.03027 75.8362 6.19323 76.6776 6.51914C77.5191 6.84505 78.1705 7.27959 78.6862 7.84993C79.2019 8.42027 79.5819 9.07209 79.8262 9.80538C80.0705 10.5387 80.2062 11.3535 80.2334 12.2225C80.2334 12.6842 80.2062 13.1188 80.1248 13.499C80.1248 13.5533 80.0705 13.5805 80.0434 13.5805H70.4891C70.5433 16.052 70.9233 17.8173 71.6291 18.9308C72.3348 20.0444 73.5019 20.5875 75.1576 20.5875C76.8676 20.5875 78.1976 20.0987 79.5005 19.0938C79.7177 19.2839 79.9619 19.7999 79.5005 20.2073C78.3062 21.2937 75.9719 21.9998 73.9091 21.9998ZM70.4619 12.8472L76.6505 12.3855C76.6776 10.3214 76.5962 6.92652 73.8548 6.92652C70.9776 6.92652 70.5433 10.6473 70.4619 12.8472Z" fill="white"/>
        <path d="M64.115 19.9344V10.9719C64.115 7.90297 62.9479 6.05615 59.935 6.05615C57.8179 6.05615 55.8093 7.06104 54.3707 8.55479C54.3707 7.35979 54.1807 6.38206 53.0136 6.38206H50.5707L50.7064 8.12024V19.9073L50.5707 21.6726H54.5336L54.3979 19.9073V9.36956C55.5379 8.50047 56.5964 8.06592 58.1165 8.06592C60.0436 8.06592 60.4236 9.85842 60.4236 11.841V19.6085C60.4236 20.9122 60.7222 21.6726 61.8079 21.6726H64.2508L64.115 19.9344Z" fill="white"/>
        <path d="M46.7444 1.95545C46.7444 3.04182 45.8487 3.91091 44.763 3.91091C43.6773 3.91091 42.7816 3.04182 42.7816 1.95545C42.7816 0.86909 43.6773 0 44.763 0C45.8487 0 46.7444 0.86909 46.7444 1.95545Z" fill="white"/>
        <path d="M42.9146 6.38263L43.0503 8.12081V19.9078L42.9146 21.6732H46.8774L46.7417 19.9078V8.41956C46.7417 7.25172 46.5246 6.35547 45.3574 6.35547H42.9146V6.38263Z" fill="white"/>
        <path d="M39.1655 19.9344V10.9719C39.1655 7.87581 37.9983 6.05615 34.9855 6.05615C32.4612 6.05615 30.7512 7.33263 29.394 8.77206C28.9054 7.06104 27.7112 6.05615 25.4311 6.05615C23.2869 6.05615 21.5497 7.06104 20.1383 8.58195V8.55479C20.1383 7.35979 19.9483 6.38206 18.7811 6.38206H16.3383L16.474 8.12024V19.9073L16.3383 21.6726H20.3011L20.1654 19.9073V9.36956C21.2783 8.44615 22.6083 8.06592 23.6669 8.06592C25.7569 8.06592 25.974 10.2115 25.974 11.841V19.9073L25.8383 21.6726H29.8012L29.6655 19.9073V9.36956C30.6155 8.55479 31.9455 8.06592 33.194 8.06592C35.3655 8.06592 35.5012 10.4288 35.5012 11.841V19.6085C35.5012 21.0751 35.9083 21.6726 36.8855 21.6726H39.3283L39.1655 19.9344Z" fill="white"/>
        <path d="M6.32437 21.9988C4.50579 21.9988 1.81863 21.4828 0.190055 20.5594C0.488628 19.8804 1.05863 19.3644 1.87292 19.799C3.33864 20.5594 4.80436 20.9125 6.43294 20.9125C8.76723 20.9125 10.4772 19.6089 10.3687 17.246C10.1244 12.3031 -0.0270886 11.5698 5.43336e-05 5.62193C0.0271973 1.24932 3.96293 0 7.7358 0C9.55438 0 11.3458 0.353068 13.1101 1.0592C12.8115 1.76534 12.2958 2.36284 11.4001 1.92829C10.1515 1.33079 8.90295 1.0592 7.57294 1.0592C5.26579 1.0592 3.96293 2.30852 3.96293 4.15534C3.93578 8.88102 14.2501 9.58715 14.4401 15.7251C14.5487 20.2064 10.803 21.9988 6.32437 21.9988Z" fill="white"/>
    </symbol>
    <symbol id="icon-sminex-2" width="82" height="19" viewBox="0 0 82 19" fill="none" xmlns="http://www.w3.org/2000/svg">
        <path d="M69.1613 18.7418L74.2686 12.5964L69.3487 5.53615H72.0195C73.3315 5.53615 73.1441 6.07564 75.4166 9.336L76.1897 10.4619L79.2823 5.70034C79.376 5.55961 79.54 5.5127 79.6806 5.5127H81.2737L76.6349 11.0952L82 18.7418H79.4931C77.8297 18.7653 78.1343 18.085 75.932 14.9654L74.7138 13.2297L71.1761 18.5307C71.0824 18.6714 70.9418 18.7184 70.7544 18.7184H69.1613V18.7418Z" fill="white"/>
        <path d="M63.7941 19.0015C61.9901 19.0015 60.1159 18.4855 58.9445 17.0312C57.8433 15.6708 57.445 13.982 57.3982 12.2697C57.3748 10.1352 57.9136 8.42293 59.0382 7.13285C60.1627 5.84278 61.709 5.20947 63.677 5.20947C64.6141 5.20947 65.4575 5.35021 66.1838 5.63168C66.9101 5.91315 67.4724 6.28844 67.9175 6.78102C68.3626 7.27359 68.6906 7.83653 68.9015 8.46984C69.1123 9.10315 69.2295 9.80683 69.2529 10.5574C69.2529 10.9562 69.2295 11.3315 69.1592 11.6598C69.1592 11.7068 69.1123 11.7302 69.0889 11.7302H60.8422C60.889 13.8647 61.217 15.3893 61.8261 16.351C62.4353 17.3127 63.4427 17.7818 64.8718 17.7818C66.3478 17.7818 67.4958 17.3596 68.6203 16.4918C68.8078 16.6559 69.0186 17.1016 68.6203 17.4534C67.5895 18.3917 65.5747 19.0015 63.7941 19.0015ZM60.8187 11.0969L66.1604 10.6981C66.1838 8.9155 66.1135 5.98352 63.7473 5.98352C61.2639 5.98352 60.889 9.19697 60.8187 11.0969Z" fill="white"/>
        <path d="M55.3403 17.2184V9.47794C55.3403 6.82742 54.3328 5.23242 51.7323 5.23242C49.9049 5.23242 48.1712 6.10029 46.9295 7.39036C46.9295 6.3583 46.7655 5.51389 45.7581 5.51389H43.6495L43.7667 7.01507V17.1949L43.6495 18.7196H47.0701L46.9529 17.1949V8.09404C47.9369 7.34345 48.8506 6.96816 50.1626 6.96816C51.826 6.96816 52.154 8.51625 52.154 10.2285V16.9369C52.154 18.0628 52.4117 18.7196 53.3489 18.7196H55.4574L55.3403 17.2184Z" fill="white"/>
        <path d="M40.3473 1.69029C40.3473 2.62852 39.5742 3.37911 38.637 3.37911C37.6999 3.37911 36.9268 2.62852 36.9268 1.69029C36.9268 0.752053 37.6999 0.00146484 38.637 0.00146484C39.5742 0.00146484 40.3473 0.752053 40.3473 1.69029Z" fill="white"/>
        <path d="M37.041 5.5132L37.1582 7.01438V17.1942L37.041 18.7189H40.4615L40.3444 17.1942V7.27239C40.3444 6.26379 40.157 5.48975 39.1496 5.48975H37.041V5.5132Z" fill="white"/>
        <path d="M33.8057 17.2184V9.47794C33.8057 6.80397 32.7983 5.23242 30.1978 5.23242C28.019 5.23242 26.543 6.33485 25.3716 7.57801C24.9498 6.10029 23.919 5.23242 21.951 5.23242C20.1002 5.23242 18.6008 6.10029 17.3825 7.41382V7.39036C17.3825 6.3583 17.2185 5.51389 16.2111 5.51389H14.1025L14.2197 7.01507V17.1949L14.1025 18.7196H17.5231L17.4059 17.1949V8.09404C18.3665 7.29654 19.5145 6.96816 20.4282 6.96816C22.2322 6.96816 22.4196 8.82117 22.4196 10.2285V17.1949L22.3024 18.7196H25.723L25.6058 17.1949V8.09404C26.4258 7.39036 27.5738 6.96816 28.6515 6.96816C30.5258 6.96816 30.6429 9.00882 30.6429 10.2285V16.9369C30.6429 18.2035 30.9943 18.7196 31.8378 18.7196H33.9463L33.8057 17.2184Z" fill="white"/>
        <path d="M5.45884 19.0007C3.88915 19.0007 1.56974 18.5551 0.164045 17.7576C0.421756 17.1712 0.913751 16.7255 1.6166 17.1008C2.88173 17.7576 4.14686 18.0625 5.55256 18.0625C7.56739 18.0625 9.04337 16.9366 8.94966 14.896C8.73881 10.627 -0.0233814 9.99367 4.68978e-05 4.85683C0.0234752 1.08044 3.42058 0.00146484 6.67711 0.00146484C8.24681 0.00146484 9.79308 0.306391 11.3159 0.916244C11.0582 1.5261 10.6131 2.04213 9.83994 1.66683C8.76223 1.1508 7.68453 0.916244 6.53654 0.916244C4.54514 0.916244 3.42058 1.99522 3.42058 3.59022C3.39715 7.67154 12.2999 8.28139 12.4639 13.5824C12.5576 17.4526 9.32451 19.0007 5.45884 19.0007Z" fill="white"/>
    </symbol>


</svg>
